<?xml version="1.0" encoding="UTF-8" standalone="no"?>
<!DOCTYPE svg PUBLIC "-//W3C//DTD SVG 1.1//EN" "http://www.w3.org/Graphics/SVG/1.1/DTD/svg11.dtd">
<svg version="1.1" xmlns="http://www.w3.org/2000/svg" xmlns:xlink="http://www.w3.org/1999/xlink" preserveAspectRatio="xMidYMid meet" viewBox="0 0 640 640" width="34" height="34"><defs><path d="M290.25 125.01L290.43 125.02L290.61 125.03L290.79 125.05L290.97 125.07L291.15 125.09L291.32 125.12L291.5 125.15L291.68 125.19L291.86 125.23L292.03 125.27L292.21 125.31L292.38 125.36L292.56 125.41L292.73 125.47L292.9 125.53L293.08 125.59L317.23 134.75L317.58 134.89L317.93 135.04L318.26 135.21L318.59 135.39L318.9 135.58L319.21 135.78L319.5 135.99L319.79 136.22L320.06 136.45L320.33 136.7L320.58 136.95L320.83 137.21L321.06 137.48L321.28 137.76L321.49 138.04L321.69 138.34L321.88 138.64L322.05 138.95L322.22 139.26L322.37 139.58L322.51 139.91L322.63 140.24L322.75 140.57L322.85 140.91L322.94 141.26L323.01 141.6L323.07 141.95L323.12 142.31L323.16 142.66L323.18 143.02L323.18 143.38L323.18 143.74L323.15 144.1L323.12 144.47L323.07 144.83L323 145.19L322.92 145.55L322.82 145.91L322.71 146.27L322.58 146.63L313.15 171.53L313.96 172.06L314.77 172.6L315.57 173.14L316.37 173.69L317.16 174.25L317.95 174.81L318.73 175.38L319.5 175.96L320.27 176.55L321.04 177.14L321.8 177.74L322.55 178.35L323.3 178.96L324.04 179.58L324.78 180.2L325.51 180.84L326.23 181.48L326.95 182.12L327.67 182.78L328.37 183.44L329.07 184.1L329.77 184.77L330.46 185.45L331.14 186.14L331.82 186.83L332.49 187.52L333.15 188.23L333.81 188.94L334.46 189.65L335.11 190.37L335.74 191.1L336.38 191.83L337 192.57L337.62 193.32L338.23 194.07L338.84 194.83L339.43 195.59L340.03 196.36L340.61 197.13L341.19 197.91L365.47 186.97L365.82 186.82L366.17 186.69L366.52 186.57L366.88 186.47L367.24 186.38L367.59 186.31L367.95 186.25L368.31 186.21L368.67 186.18L369.03 186.16L369.39 186.16L369.75 186.17L370.11 186.2L370.46 186.24L370.81 186.29L371.16 186.36L371.5 186.44L371.85 186.53L372.18 186.64L372.52 186.76L372.84 186.89L373.17 187.03L373.49 187.19L373.8 187.36L374.1 187.54L374.4 187.73L374.69 187.94L374.98 188.15L375.25 188.38L375.52 188.62L375.78 188.87L376.03 189.13L376.27 189.4L376.5 189.68L376.72 189.97L376.93 190.28L377.13 190.59L377.32 190.91L377.49 191.25L377.66 191.59L388.27 215.14L388.34 215.31L388.41 215.48L388.48 215.65L388.54 215.82L388.6 215.99L388.66 216.16L388.71 216.34L388.76 216.51L388.8 216.69L388.85 216.86L388.88 217.04L388.92 217.22L388.95 217.39L388.98 217.57L389 217.75L389.03 217.93L389.04 218.11L389.06 218.29L389.07 218.47L389.08 218.65L389.08 218.83L389.08 219.01L389.08 219.19L389.07 219.37L389.06 219.55L389.05 219.73L389.03 219.9L389.01 220.08L388.98 220.26L388.95 220.44L388.92 220.62L388.89 220.8L388.85 220.97L388.81 221.15L388.76 221.33L388.71 221.5L388.66 221.68L388.6 221.85L388.54 222.02L388.48 222.19L388.41 222.36L388.35 222.53L388.27 222.7L388.2 222.87L388.12 223.03L388.03 223.19L387.95 223.35L387.86 223.51L387.77 223.67L387.67 223.82L387.58 223.97L387.48 224.12L387.37 224.27L387.27 224.42L387.16 224.56L387.05 224.7L386.93 224.84L386.82 224.98L386.7 225.11L386.58 225.25L386.45 225.37L386.32 225.5L386.19 225.63L386.06 225.75L385.93 225.87L385.79 225.99L385.65 226.1L385.51 226.21L385.37 226.32L385.22 226.43L385.07 226.53L384.92 226.63L384.77 226.73L384.62 226.83L384.46 226.92L384.3 227.01L384.14 227.09L383.98 227.18L383.81 227.26L383.65 227.33L359.37 238.27L359.57 239.22L359.76 240.17L359.95 241.12L360.12 242.07L360.29 243.03L360.44 243.98L360.59 244.94L360.73 245.9L360.86 246.86L360.98 247.82L361.1 248.78L361.2 249.74L361.3 250.7L361.38 251.67L361.46 252.63L361.53 253.6L361.59 254.56L361.64 255.53L361.68 256.49L361.72 257.46L361.74 258.42L361.76 259.39L361.77 260.36L361.77 261.32L361.76 262.29L361.74 263.26L361.71 264.22L361.67 265.19L361.63 266.16L361.57 267.12L361.51 268.09L361.44 269.05L361.36 270.02L361.27 270.98L361.17 271.94L361.06 272.91L360.95 273.87L360.82 274.83L360.69 275.79L360.54 276.75L385.45 286.18L385.62 286.25L385.78 286.32L385.95 286.39L386.12 286.47L386.28 286.55L386.44 286.63L386.6 286.72L386.76 286.8L386.92 286.89L387.07 286.99L387.22 287.09L387.37 287.19L387.52 287.29L387.67 287.4L387.81 287.5L387.95 287.62L388.09 287.73L388.23 287.85L388.36 287.97L388.5 288.09L388.63 288.21L388.75 288.34L388.88 288.47L389 288.6L389.12 288.74L389.24 288.87L389.35 289.01L389.46 289.15L389.57 289.3L389.68 289.44L389.78 289.59L389.88 289.74L389.98 289.89L390.08 290.05L390.17 290.2L390.26 290.36L390.34 290.52L390.43 290.69L390.51 290.85L390.59 291.02L390.66 291.18L390.73 291.35L390.8 291.52L390.86 291.69L390.92 291.87L390.97 292.04L391.03 292.21L391.08 292.39L391.12 292.56L391.16 292.74L391.2 292.91L391.24 293.09L391.27 293.27L391.3 293.45L391.32 293.62L391.34 293.8L391.36 293.98L391.38 294.16L391.39 294.34L391.39 294.52L391.4 294.7L391.4 294.88L391.4 295.06L391.39 295.24L391.38 295.42L391.36 295.6L391.35 295.78L391.33 295.96L391.3 296.14L391.27 296.31L391.24 296.49L391.21 296.67L391.17 296.85L391.13 297.02L391.08 297.2L391.03 297.37L390.98 297.55L390.92 297.72L390.86 297.9L390.8 298.07L381.65 322.22L381.51 322.58L381.35 322.92L381.19 323.25L381.01 323.58L380.82 323.89L380.61 324.2L380.4 324.5L380.18 324.78L379.94 325.06L379.7 325.32L379.45 325.58L379.19 325.82L378.92 326.05L378.64 326.27L378.35 326.49L378.06 326.68L377.76 326.87L377.45 327.05L377.14 327.21L376.82 327.36L376.49 327.5L376.16 327.63L375.82 327.74L375.49 327.84L375.14 327.93L374.79 328.01L374.44 328.07L374.09 328.12L373.73 328.15L373.38 328.17L373.02 328.18L372.66 328.17L372.29 328.15L371.93 328.11L371.57 328.06L371.2 327.99L370.84 327.91L370.48 327.82L370.12 327.7L369.76 327.58L344.86 318.14L344.33 318.95L343.8 319.76L343.26 320.56L342.71 321.36L342.15 322.15L341.58 322.94L341.01 323.72L340.43 324.5L339.85 325.27L339.26 326.03L338.66 326.79L338.05 327.54L337.44 328.29L336.82 329.03L336.19 329.77L335.56 330.5L334.92 331.23L334.27 331.95L333.62 332.66L332.96 333.37L332.29 334.07L331.62 334.76L330.94 335.45L330.26 336.13L329.57 336.81L328.87 337.48L328.17 338.15L327.46 338.8L326.74 339.45L326.02 340.1L325.29 340.74L324.56 341.37L323.82 341.99L323.08 342.61L322.33 343.22L321.57 343.83L320.81 344.43L320.04 345.02L319.27 345.6L318.49 346.18L329.42 370.46L329.57 370.81L329.7 371.16L329.82 371.51L329.93 371.87L330.01 372.23L330.09 372.59L330.15 372.95L330.19 373.31L330.22 373.67L330.24 374.03L330.24 374.39L330.22 374.74L330.2 375.1L330.16 375.45L330.1 375.8L330.04 376.15L329.96 376.5L329.86 376.84L329.76 377.18L329.64 377.51L329.51 377.84L329.36 378.16L329.2 378.48L329.04 378.79L328.85 379.1L328.66 379.4L328.46 379.69L328.24 379.97L328.01 380.25L327.78 380.51L327.53 380.77L327.27 381.02L326.99 381.26L326.71 381.49L326.42 381.71L326.11 381.92L325.8 382.12L325.48 382.31L325.14 382.49L324.8 382.65L301.25 393.26L301.08 393.33L300.91 393.4L300.74 393.47L300.57 393.53L300.4 393.59L300.23 393.65L300.05 393.7L299.88 393.75L299.7 393.79L299.53 393.84L299.35 393.87L299.18 393.91L299 393.94L298.82 393.97L298.64 393.99L298.46 394.02L298.28 394.03L298.1 394.05L297.92 394.06L297.74 394.07L297.56 394.07L297.39 394.07L297.21 394.07L297.03 394.06L296.85 394.05L296.67 394.04L296.49 394.02L296.31 394L296.13 393.97L295.95 393.94L295.77 393.91L295.59 393.88L295.42 393.84L295.24 393.8L295.06 393.75L294.89 393.7L294.72 393.65L294.54 393.59L294.37 393.53L294.2 393.47L294.03 393.4L293.86 393.34L293.69 393.26L293.52 393.19L293.36 393.11L293.2 393.02L293.04 392.94L292.88 392.85L292.72 392.76L292.57 392.66L292.42 392.57L292.27 392.47L292.12 392.36L291.97 392.26L291.83 392.15L291.69 392.04L291.55 391.92L291.41 391.81L291.28 391.69L291.15 391.57L291.02 391.44L290.89 391.31L290.76 391.18L290.64 391.05L290.52 390.92L290.4 390.78L290.29 390.64L290.18 390.5L290.07 390.36L289.96 390.21L289.86 390.06L289.76 389.91L289.66 389.76L289.56 389.61L289.47 389.45L289.38 389.29L289.3 389.13L289.21 388.97L289.13 388.8L289.06 388.64L278.12 364.36L277.18 364.56L276.23 364.75L275.28 364.94L274.33 365.11L273.37 365.28L272.42 365.44L271.46 365.58L270.51 365.72L269.55 365.86L268.59 365.98L267.63 366.09L266.67 366.19L265.71 366.29L264.74 366.38L263.78 366.46L262.82 366.52L261.85 366.59L260.88 366.64L259.92 366.68L258.95 366.71L257.98 366.74L257.02 366.76L256.05 366.76L255.08 366.76L254.11 366.75L253.15 366.73L252.18 366.7L251.21 366.67L250.25 366.62L249.28 366.57L248.31 366.5L247.35 366.43L246.38 366.35L245.42 366.26L244.45 366.16L243.49 366.05L242.53 365.94L241.56 365.81L240.6 365.68L239.64 365.53L230.21 390.43L230.14 390.6L230.07 390.77L230 390.94L229.92 391.11L229.84 391.27L229.76 391.43L229.68 391.59L229.59 391.75L229.5 391.91L229.4 392.06L229.3 392.21L229.2 392.36L229.1 392.51L229 392.66L228.89 392.8L228.78 392.94L228.66 393.08L228.55 393.22L228.43 393.35L228.3 393.48L228.18 393.61L228.05 393.74L227.92 393.87L227.79 393.99L227.66 394.11L227.52 394.23L227.38 394.34L227.24 394.45L227.1 394.56L226.95 394.67L226.8 394.77L226.65 394.87L226.5 394.97L226.34 395.07L226.19 395.16L226.03 395.25L225.87 395.33L225.71 395.42L225.54 395.5L225.38 395.57L225.29 395.61L225.19 395.65L225.1 395.69L225.01 395.73L224.92 395.76L224.83 395.8L224.74 395.83L224.64 395.87L224.55 395.9L224.46 395.93L224.37 395.96L224.27 395.99L224.18 396.02L224.08 396.04L223.99 396.07L223.9 396.09L223.8 396.12L223.71 396.14L223.61 396.16L223.52 396.18L223.42 396.2L223.33 396.22L223.23 396.24L223.13 396.26L223.04 396.27L222.94 396.29L222.85 396.3L222.75 396.31L222.65 396.32L222.56 396.34L222.46 396.35L222.36 396.35L222.27 396.36L222.17 396.37L222.07 396.37L221.98 396.38L221.88 396.38L221.78 396.38L221.69 396.39L221.59 396.39L221.51 396.39L221.42 396.38L221.34 396.38L221.26 396.38L221.17 396.38L221.09 396.37L221.01 396.37L220.93 396.36L220.84 396.36L220.76 396.35L220.68 396.34L220.6 396.33L220.51 396.32L220.43 396.31L220.35 396.3L220.27 396.29L220.18 396.28L220.1 396.27L220.02 396.25L219.94 396.24L219.86 396.22L219.77 396.21L219.69 396.19L219.61 396.17L219.53 396.15L219.45 396.13L219.37 396.11L219.28 396.09L219.2 396.07L219.12 396.05L219.04 396.03L218.96 396L218.88 395.98L218.8 395.95L218.72 395.93L218.64 395.9L218.56 395.88L218.48 395.85L218.4 395.82L218.32 395.79L194.17 386.64L193.82 386.5L193.47 386.34L193.14 386.17L192.81 386L192.5 385.8L192.19 385.6L191.9 385.39L191.61 385.17L191.33 384.93L191.07 384.69L190.81 384.44L190.57 384.17L190.34 383.9L190.12 383.63L189.91 383.34L189.71 383.05L189.52 382.74L189.34 382.44L189.18 382.12L189.03 381.8L188.89 381.48L188.76 381.15L188.65 380.81L188.55 380.47L188.46 380.13L188.39 379.78L188.32 379.43L188.28 379.08L188.24 378.72L188.22 378.36L188.21 378L188.22 377.64L188.24 377.28L188.28 376.92L188.33 376.56L188.4 376.19L188.48 375.83L188.57 375.47L188.69 375.11L188.81 374.75L198.25 349.85L197.44 349.32L196.63 348.79L195.83 348.24L195.03 347.69L194.24 347.14L193.45 346.57L192.67 346L191.89 345.42L191.12 344.84L190.36 344.24L189.6 343.65L188.85 343.04L188.1 342.43L187.36 341.81L186.62 341.18L185.89 340.55L185.16 339.91L184.44 339.26L183.73 338.61L183.02 337.95L182.32 337.28L181.63 336.61L180.94 335.93L180.26 335.25L179.58 334.56L178.91 333.86L178.25 333.16L177.59 332.45L176.94 331.73L176.29 331.01L175.65 330.28L175.02 329.55L174.4 328.81L173.78 328.07L173.17 327.32L172.56 326.56L171.96 325.8L171.37 325.03L170.79 324.25L170.21 323.48L145.93 334.41L145.76 334.49L145.6 334.56L145.43 334.62L145.25 334.69L145.08 334.75L144.91 334.8L144.74 334.85L144.56 334.9L144.39 334.95L144.21 334.99L144.04 335.03L143.86 335.07L143.68 335.1L143.5 335.13L143.32 335.15L143.15 335.17L142.97 335.19L142.79 335.2L142.61 335.21L142.43 335.22L142.25 335.23L142.07 335.23L141.89 335.22L141.71 335.22L141.53 335.2L141.35 335.19L141.17 335.17L140.99 335.15L140.81 335.13L140.63 335.1L140.46 335.07L140.28 335.03L140.1 335L139.92 334.95L139.75 334.91L139.57 334.86L139.4 334.81L139.23 334.75L139.05 334.69L138.88 334.63L138.71 334.56L138.54 334.49L138.37 334.42L138.21 334.34L138.04 334.26L137.88 334.18L137.72 334.09L137.56 334.01L137.41 333.91L137.25 333.82L137.1 333.72L136.95 333.62L136.8 333.52L136.66 333.41L136.51 333.3L136.37 333.19L136.23 333.08L136.1 332.96L135.96 332.84L135.83 332.72L135.7 332.6L135.57 332.47L135.45 332.34L135.33 332.21L135.21 332.07L135.09 331.94L134.97 331.8L134.86 331.66L134.75 331.51L134.65 331.37L134.54 331.22L134.44 331.07L134.34 330.92L134.25 330.76L134.16 330.61L134.07 330.45L133.98 330.29L133.9 330.12L133.82 329.96L133.74 329.79L123.13 306.24L123.06 306.07L122.99 305.91L122.92 305.74L122.86 305.56L122.8 305.39L122.74 305.22L122.69 305.05L122.64 304.87L122.6 304.7L122.55 304.52L122.51 304.34L122.48 304.17L122.45 303.99L122.42 303.81L122.39 303.63L122.37 303.46L122.36 303.28L122.34 303.1L122.33 302.92L122.32 302.74L122.32 302.56L122.32 302.38L122.32 302.2L122.33 302.02L122.34 301.84L122.35 301.66L122.37 301.48L122.39 301.3L122.42 301.12L122.44 300.94L122.48 300.76L122.51 300.59L122.55 300.41L122.59 300.23L122.64 300.06L122.69 299.88L122.74 299.71L122.79 299.53L122.85 299.36L122.92 299.19L122.98 299.02L123.05 298.85L123.13 298.68L123.2 298.52L123.28 298.35L123.36 298.19L123.45 298.03L123.54 297.87L123.63 297.72L123.72 297.56L123.82 297.41L123.92 297.26L124.02 297.11L124.13 296.97L124.24 296.82L124.35 296.68L124.46 296.54L124.58 296.41L124.7 296.27L124.82 296.14L124.95 296.01L125.07 295.88L125.2 295.76L125.34 295.63L125.47 295.51L125.61 295.4L125.75 295.28L125.89 295.17L126.03 295.06L126.18 294.96L126.32 294.85L126.48 294.75L126.63 294.65L126.78 294.56L126.94 294.47L127.1 294.38L127.26 294.29L127.42 294.21L127.58 294.13L127.75 294.05L152.03 283.11L151.83 282.17L151.64 281.22L151.45 280.26L151.28 279.31L151.11 278.36L150.96 277.4L150.81 276.44L150.67 275.49L150.54 274.53L150.42 273.57L150.3 272.61L150.2 271.64L150.1 270.68L150.02 269.72L149.94 268.75L149.87 267.79L149.81 266.82L149.76 265.86L149.72 264.89L149.68 263.93L149.66 262.96L149.64 261.99L149.63 261.03L149.63 260.06L149.64 259.09L149.66 258.13L149.69 257.16L149.73 256.19L149.77 255.23L149.83 254.26L149.89 253.3L149.96 252.33L150.04 251.37L150.13 250.4L150.23 249.44L150.34 248.48L150.45 247.52L150.58 246.56L150.71 245.6L150.86 244.64L125.96 235.2L125.6 235.06L125.26 234.91L124.92 234.74L124.6 234.56L124.28 234.37L123.98 234.17L123.68 233.95L123.4 233.73L123.12 233.5L122.86 233.25L122.6 233L122.36 232.74L122.13 232.47L121.9 232.19L121.69 231.9L121.49 231.61L121.31 231.31L121.13 231L120.97 230.69L120.82 230.37L120.68 230.04L120.55 229.71L120.44 229.38L120.34 229.04L120.25 228.69L120.17 228.35L120.11 228L120.06 227.64L120.03 227.29L120.01 226.93L120 226.57L120.01 226.21L120.03 225.85L120.07 225.48L120.12 225.12L120.18 224.76L120.27 224.4L120.36 224.03L120.47 223.67L120.6 223.32L129.75 199.16L129.82 198.99L129.89 198.82L129.96 198.66L130.04 198.49L130.12 198.33L130.2 198.16L130.29 198L130.37 197.85L130.47 197.69L130.56 197.54L130.66 197.38L130.76 197.23L130.86 197.09L130.97 196.94L131.08 196.8L131.19 196.65L131.3 196.52L131.42 196.38L131.54 196.24L131.66 196.11L131.78 195.98L131.91 195.85L132.04 195.73L132.17 195.61L132.31 195.49L132.44 195.37L132.58 195.26L132.72 195.14L132.87 195.03L133.01 194.93L133.16 194.82L133.31 194.72L133.46 194.63L133.62 194.53L133.77 194.44L133.93 194.35L134.09 194.26L134.26 194.18L134.42 194.1L134.59 194.02L134.75 193.95L134.92 193.88L135.09 193.81L135.26 193.75L135.44 193.69L135.61 193.63L135.78 193.58L135.96 193.53L136.13 193.49L136.31 193.44L136.48 193.41L136.66 193.37L136.84 193.34L137.02 193.31L137.2 193.29L137.37 193.26L137.55 193.25L137.73 193.23L137.91 193.22L138.09 193.21L138.27 193.21L138.45 193.21L138.63 193.21L138.81 193.22L138.99 193.23L139.17 193.24L139.35 193.26L139.53 193.28L139.71 193.31L139.89 193.33L140.06 193.37L140.24 193.4L140.42 193.44L140.6 193.48L140.77 193.53L140.95 193.58L141.12 193.63L141.29 193.68L141.47 193.74L141.64 193.81L166.54 203.24L167.07 202.43L167.6 201.62L168.15 200.82L168.7 200.02L169.25 199.23L169.82 198.45L170.39 197.66L170.97 196.89L171.55 196.12L172.15 195.35L172.75 194.59L173.35 193.84L173.96 193.09L174.58 192.35L175.21 191.61L175.84 190.88L176.48 190.16L177.13 189.44L177.78 188.73L178.44 188.02L179.11 187.32L179.78 186.62L180.46 185.93L181.14 185.25L181.83 184.57L182.53 183.9L183.23 183.24L183.94 182.58L184.66 181.93L185.38 181.29L186.11 180.65L186.84 180.02L187.58 179.39L188.33 178.77L189.08 178.16L189.83 177.55L190.6 176.96L191.36 176.37L192.14 175.78L192.92 175.2L181.98 150.93L181.83 150.58L181.7 150.22L181.58 149.87L181.48 149.51L181.39 149.15L181.31 148.8L181.26 148.44L181.21 148.08L181.18 147.72L181.17 147.36L181.17 147L181.18 146.64L181.2 146.29L181.24 145.93L181.3 145.58L181.37 145.23L181.45 144.89L181.54 144.54L181.65 144.21L181.76 143.87L181.9 143.55L182.04 143.22L182.2 142.9L182.36 142.59L182.55 142.29L182.74 141.99L182.94 141.7L183.16 141.41L183.39 141.14L183.62 140.87L183.87 140.61L184.13 140.36L184.41 140.12L184.69 139.89L184.98 139.67L185.28 139.46L185.6 139.26L185.92 139.07L186.25 138.9L186.6 138.74L210.15 128.13L210.32 128.05L210.49 127.98L210.66 127.92L210.83 127.85L211 127.79L211.17 127.74L211.35 127.68L211.52 127.64L211.7 127.59L211.87 127.55L212.05 127.51L212.23 127.47L212.4 127.44L212.58 127.41L212.76 127.39L212.94 127.37L213.12 127.35L213.3 127.34L213.48 127.32L213.66 127.32L213.84 127.31L214.02 127.31L214.2 127.32L214.38 127.32L214.56 127.33L214.74 127.35L214.91 127.37L215.09 127.39L215.27 127.41L215.45 127.44L215.63 127.47L215.81 127.5L215.98 127.54L216.16 127.59L216.34 127.63L216.51 127.68L216.69 127.73L216.86 127.79L217.03 127.85L217.2 127.91L217.37 127.98L217.54 128.05L217.71 128.12L217.88 128.2L218.04 128.28L218.2 128.36L218.36 128.44L218.52 128.53L218.68 128.62L218.83 128.72L218.98 128.82L219.13 128.92L219.28 129.02L219.43 129.12L219.57 129.23L219.71 129.34L219.85 129.46L219.99 129.58L220.12 129.69L220.25 129.82L220.38 129.94L220.51 130.07L220.64 130.2L220.76 130.33L220.88 130.46L221 130.6L221.11 130.74L221.22 130.88L221.33 131.02L221.44 131.17L221.54 131.32L221.64 131.47L221.74 131.62L221.84 131.78L221.93 131.93L222.02 132.09L222.1 132.25L222.19 132.41L222.27 132.58L222.34 132.74L233.28 157.02L234.22 156.82L235.17 156.63L236.12 156.44L237.07 156.27L238.03 156.1L238.98 155.95L239.94 155.8L240.89 155.66L241.85 155.53L242.81 155.4L243.77 155.29L244.73 155.19L245.69 155.09L246.66 155L247.62 154.93L248.59 154.86L249.55 154.8L250.52 154.74L251.48 154.7L252.45 154.67L253.42 154.64L254.38 154.63L255.35 154.62L256.32 154.62L257.29 154.63L258.25 154.65L259.22 154.68L260.19 154.71L261.16 154.76L262.12 154.81L263.09 154.88L264.05 154.95L265.02 155.03L265.98 155.12L266.95 155.22L267.91 155.33L268.87 155.44L269.84 155.57L270.8 155.7L271.76 155.85L281.19 130.95L281.26 130.78L281.33 130.61L281.4 130.44L281.48 130.28L281.56 130.11L281.64 129.95L281.72 129.79L281.81 129.63L281.9 129.48L282 129.32L282.1 129.17L282.2 129.02L282.3 128.87L282.4 128.73L282.51 128.58L282.62 128.44L282.74 128.3L282.86 128.16L282.97 128.03L283.1 127.9L283.22 127.77L283.35 127.64L283.48 127.52L283.61 127.39L283.74 127.27L283.88 127.16L284.02 127.04L284.16 126.93L284.3 126.82L284.45 126.71L284.6 126.61L284.75 126.51L284.9 126.41L285.06 126.32L285.21 126.22L285.37 126.14L285.53 126.05L285.69 125.97L285.86 125.89L286.02 125.81L286.19 125.74L286.36 125.67L286.53 125.6L286.7 125.54L286.87 125.48L287.05 125.42L287.22 125.37L287.39 125.32L287.57 125.27L287.75 125.23L287.92 125.19L288.1 125.16L288.28 125.12L288.46 125.1L288.63 125.07L288.81 125.05L288.99 125.03L289.17 125.02L289.35 125.01L289.53 125L289.71 125L289.89 125L290.07 125L290.25 125.01ZM251.86 198.29L249.95 198.44L248.05 198.65L246.16 198.92L244.29 199.24L242.44 199.62L240.6 200.05L238.78 200.54L236.97 201.08L235.19 201.68L233.43 202.33L231.69 203.03L229.97 203.78L228.28 204.58L226.62 205.43L224.98 206.33L223.37 207.27L221.79 208.27L220.23 209.3L218.71 210.39L217.22 211.52L215.77 212.69L214.35 213.9L212.96 215.16L211.62 216.46L210.31 217.8L209.04 219.18L207.81 220.59L206.62 222.05L205.47 223.54L204.37 225.08L203.31 226.64L202.3 228.24L201.33 229.88L200.42 231.55L199.55 233.25L198.73 234.99L197.97 236.75L197.25 238.55L196.82 239.72L196.41 240.9L196.03 242.08L195.67 243.27L195.34 244.46L195.03 245.66L194.74 246.85L194.48 248.05L194.24 249.26L194.02 250.46L193.83 251.67L193.67 252.88L193.52 254.1L193.4 255.31L193.31 256.52L193.24 257.74L193.19 258.95L193.17 260.17L193.17 261.39L193.19 262.6L193.24 263.82L193.32 265.03L193.41 266.24L193.53 267.45L193.68 268.66L193.85 269.87L194.04 271.07L194.26 272.27L194.5 273.47L194.76 274.66L195.05 275.86L195.36 277.04L195.7 278.23L196.06 279.4L196.44 280.58L196.85 281.75L197.28 282.91L197.73 284.06L198.21 285.22L198.71 286.36L199.24 287.5L199.78 288.62L200.35 289.72L200.93 290.82L201.54 291.9L202.16 292.96L202.81 294.01L203.47 295.05L204.15 296.07L204.86 297.07L205.57 298.06L206.31 299.04L207.07 299.99L207.84 300.94L208.63 301.86L209.44 302.77L210.27 303.66L211.11 304.54L211.97 305.4L212.85 306.24L213.75 307.06L214.65 307.87L215.58 308.66L216.52 309.43L217.48 310.18L218.45 310.92L219.44 311.63L220.44 312.33L221.46 313L222.49 313.66L223.54 314.3L224.6 314.92L225.67 315.52L226.76 316.1L227.86 316.66L228.97 317.19L230.1 317.71L231.24 318.21L232.39 318.68L233.56 319.14L234.09 319.34L234.63 319.53L235.17 319.72L235.71 319.91L236.25 320.09L236.79 320.26L237.33 320.43L237.87 320.6L238.42 320.76L238.96 320.91L239.51 321.06L240.06 321.21L240.6 321.35L241.15 321.48L241.7 321.61L242.25 321.74L242.81 321.86L243.36 321.97L243.91 322.08L244.47 322.19L245.02 322.29L245.58 322.38L246.13 322.47L246.69 322.56L247.25 322.64L247.81 322.71L248.37 322.78L248.93 322.84L249.49 322.9L250.05 322.96L250.61 323L251.17 323.05L251.73 323.09L252.3 323.12L252.86 323.15L253.43 323.17L253.99 323.19L254.56 323.2L255.12 323.21L255.69 323.21L257.62 323.18L259.54 323.09L261.45 322.94L263.35 322.73L265.24 322.47L267.11 322.14L268.96 321.77L270.8 321.33L272.62 320.84L274.43 320.3L276.21 319.7L277.97 319.06L279.71 318.36L281.43 317.6L283.12 316.8L284.78 315.95L286.42 315.06L288.03 314.11L289.61 313.12L291.17 312.08L292.69 311L294.18 309.87L295.63 308.7L297.05 307.48L298.44 306.22L299.78 304.93L301.09 303.59L302.36 302.21L303.59 300.79L304.78 299.33L305.93 297.84L307.03 296.31L308.09 294.74L309.1 293.14L310.07 291.5L310.98 289.84L311.85 288.13L312.67 286.4L313.43 284.63L314.15 282.84L314.58 281.66L314.99 280.48L315.37 279.3L315.73 278.11L316.06 276.92L316.37 275.73L316.66 274.53L316.92 273.33L317.16 272.13L317.38 270.92L317.57 269.71L317.74 268.5L317.88 267.29L318 266.07L318.09 264.86L318.16 263.65L318.21 262.43L318.23 261.21L318.23 260L318.21 258.78L318.16 257.57L318.08 256.35L317.99 255.14L317.87 253.93L317.72 252.72L317.55 251.52L317.36 250.31L317.14 249.11L316.9 247.91L316.64 246.72L316.35 245.53L316.04 244.34L315.7 243.16L315.34 241.98L314.96 240.81L314.55 239.64L314.12 238.47L313.67 237.32L313.19 236.17L312.69 235.02L312.16 233.89L311.62 232.77L311.05 231.66L310.47 230.56L309.86 229.49L309.24 228.42L308.59 227.37L307.93 226.34L307.25 225.32L306.55 224.31L305.83 223.32L305.09 222.35L304.33 221.39L303.56 220.45L302.77 219.52L301.96 218.61L301.13 217.72L300.29 216.84L299.43 215.99L298.55 215.14L297.65 214.32L296.75 213.51L295.82 212.73L294.88 211.95L293.92 211.2L292.95 210.47L291.96 209.75L290.96 209.06L289.94 208.38L288.91 207.72L287.86 207.08L286.8 206.47L285.73 205.87L284.64 205.29L283.54 204.73L282.43 204.19L281.3 203.67L280.16 203.18L279.01 202.7L277.84 202.25L277.31 202.05L276.77 201.85L276.23 201.66L275.69 201.48L275.15 201.3L274.61 201.12L274.07 200.95L273.53 200.79L272.98 200.63L272.44 200.47L271.89 200.32L271.34 200.17L270.8 200.03L270.25 199.9L269.7 199.77L269.15 199.65L268.59 199.53L268.04 199.41L267.49 199.3L266.93 199.2L266.38 199.1L265.82 199L265.27 198.91L264.71 198.83L264.15 198.75L263.59 198.67L263.03 198.61L262.47 198.54L261.91 198.48L261.35 198.43L260.79 198.38L260.23 198.34L259.67 198.3L259.1 198.26L258.54 198.24L257.97 198.21L257.41 198.2L256.84 198.18L256.28 198.17L255.71 198.17L253.78 198.2L251.86 198.29Z" id="akuRmY8Ws"></path><path d="M421.42 301.82L421.7 301.85L421.98 301.89L422.26 301.94L422.53 301.99L422.8 302.06L423.07 302.14L423.33 302.23L423.59 302.33L423.84 302.44L424.08 302.56L424.32 302.69L424.56 302.83L424.79 302.97L425.01 303.13L425.23 303.29L425.44 303.46L425.64 303.64L425.83 303.82L426.02 304.01L426.2 304.21L426.37 304.42L426.54 304.63L426.7 304.85L426.84 305.08L426.98 305.31L427.11 305.55L427.23 305.79L427.35 306.04L427.45 306.3L427.54 306.56L427.62 306.82L427.69 307.09L427.75 307.37L427.8 307.64L427.84 307.92L427.87 308.21L427.88 308.5L428.56 328.75L429.29 328.87L430.02 329L430.76 329.14L431.49 329.28L432.22 329.44L432.94 329.59L433.67 329.76L434.39 329.93L435.11 330.1L435.83 330.29L436.55 330.47L437.27 330.67L437.98 330.87L438.69 331.08L439.4 331.3L440.11 331.52L440.82 331.75L441.52 331.98L442.22 332.22L442.92 332.47L443.62 332.72L444.31 332.98L445 333.25L445.69 333.52L446.38 333.8L447.06 334.08L447.74 334.37L448.42 334.67L449.1 334.98L449.77 335.28L450.44 335.6L451.11 335.92L451.77 336.25L452.43 336.58L453.09 336.92L453.74 337.27L454.4 337.62L455.04 337.98L455.69 338.34L456.33 338.71L470.36 323.74L470.57 323.53L470.78 323.33L470.99 323.14L471.22 322.96L471.44 322.79L471.68 322.63L471.92 322.48L472.16 322.34L472.41 322.21L472.66 322.09L472.91 321.98L473.17 321.89L473.43 321.8L473.7 321.72L473.96 321.65L474.23 321.59L474.5 321.54L474.77 321.5L475.04 321.48L475.31 321.46L475.59 321.45L475.86 321.46L476.13 321.47L476.4 321.49L476.67 321.53L476.94 321.57L477.21 321.63L477.48 321.69L477.74 321.77L478 321.85L478.26 321.95L478.52 322.05L478.77 322.17L479.02 322.3L479.26 322.44L479.5 322.59L479.73 322.74L479.96 322.91L480.19 323.09L480.4 323.28L494.94 336.54L495.04 336.63L495.14 336.73L495.24 336.83L495.34 336.93L495.43 337.03L495.52 337.14L495.61 337.24L495.7 337.35L495.78 337.46L495.86 337.57L495.94 337.68L496.02 337.79L496.1 337.91L496.17 338.02L496.24 338.14L496.31 338.26L496.37 338.38L496.44 338.5L496.5 338.62L496.56 338.74L496.61 338.87L496.67 338.99L496.72 339.12L496.76 339.25L496.81 339.38L496.85 339.51L496.89 339.64L496.93 339.77L496.97 339.9L497 340.03L497.03 340.17L497.06 340.3L497.09 340.44L497.11 340.57L497.13 340.71L497.14 340.85L497.16 340.99L497.17 341.12L497.18 341.26L497.19 341.4L497.19 341.54L497.19 341.68L497.19 341.82L497.18 341.96L497.17 342.1L497.16 342.24L497.15 342.37L497.13 342.51L497.11 342.65L497.09 342.78L497.07 342.92L497.04 343.05L497.01 343.19L496.98 343.32L496.95 343.46L496.91 343.59L496.87 343.72L496.83 343.85L496.78 343.98L496.73 344.11L496.68 344.24L496.63 344.37L496.58 344.49L496.52 344.62L496.46 344.74L496.4 344.87L496.33 344.99L496.26 345.11L496.19 345.23L496.12 345.35L496.05 345.46L495.97 345.58L495.89 345.69L495.81 345.81L495.73 345.92L495.64 346.03L495.55 346.14L495.46 346.24L495.37 346.35L495.27 346.45L481.24 361.43L481.66 362.03L482.08 362.64L482.5 363.25L482.9 363.86L483.3 364.48L483.7 365.1L484.09 365.72L484.47 366.35L484.85 366.98L485.22 367.61L485.59 368.25L485.95 368.89L486.3 369.54L486.65 370.18L486.99 370.83L487.32 371.49L487.65 372.14L487.98 372.8L488.29 373.46L488.6 374.13L488.91 374.8L489.21 375.47L489.5 376.14L489.78 376.82L490.06 377.5L490.34 378.18L490.6 378.86L490.87 379.55L491.12 380.24L491.37 380.93L491.61 381.62L491.84 382.32L492.07 383.02L492.29 383.72L492.51 384.42L492.72 385.12L492.92 385.83L493.12 386.54L493.31 387.25L493.49 387.96L514.01 387.04L514.15 387.03L514.29 387.03L514.43 387.03L514.57 387.03L514.71 387.04L514.85 387.05L514.99 387.06L515.13 387.07L515.27 387.09L515.4 387.11L515.54 387.13L515.68 387.16L515.81 387.18L515.95 387.21L516.08 387.25L516.22 387.28L516.35 387.32L516.48 387.36L516.61 387.4L516.74 387.45L516.87 387.5L517 387.55L517.13 387.6L517.25 387.65L517.38 387.71L517.5 387.77L517.63 387.83L517.75 387.9L517.87 387.97L517.99 388.04L518.1 388.11L518.22 388.18L518.34 388.26L518.45 388.34L518.56 388.42L518.67 388.5L518.78 388.59L518.89 388.68L518.99 388.77L519.1 388.86L519.2 388.96L519.3 389.05L519.4 389.15L519.49 389.25L519.59 389.36L519.68 389.46L519.77 389.56L519.85 389.67L519.94 389.78L520.02 389.89L520.1 390L520.18 390.11L520.25 390.23L520.33 390.35L520.4 390.46L520.46 390.58L520.53 390.7L520.59 390.82L520.65 390.94L520.71 391.07L520.77 391.19L520.82 391.32L520.87 391.44L520.92 391.57L520.97 391.7L521.01 391.83L521.05 391.96L521.09 392.09L521.13 392.22L521.16 392.36L521.19 392.49L521.22 392.63L521.24 392.76L521.27 392.9L521.29 393.03L521.3 393.17L521.32 393.31L521.33 393.45L521.34 393.59L521.34 393.73L522 413.37L522 413.66L521.99 413.95L521.97 414.23L521.94 414.51L521.9 414.79L521.85 415.06L521.78 415.34L521.71 415.6L521.62 415.87L521.53 416.12L521.43 416.38L521.31 416.63L521.19 416.87L521.06 417.11L520.92 417.35L520.77 417.57L520.61 417.79L520.44 418.01L520.27 418.22L520.08 418.42L519.89 418.62L519.7 418.81L519.49 418.99L519.28 419.16L519.06 419.33L518.84 419.48L518.6 419.63L518.37 419.77L518.12 419.9L517.88 420.03L517.62 420.14L517.36 420.24L517.1 420.34L516.83 420.42L516.56 420.5L516.28 420.56L516 420.61L515.71 420.65L515.42 420.68L515.13 420.7L494.61 421.63L494.48 422.36L494.34 423.08L494.19 423.81L494.03 424.53L493.87 425.25L493.7 425.97L493.53 426.69L493.35 427.41L493.16 428.12L492.96 428.84L492.76 429.55L492.55 430.26L492.34 430.96L492.12 431.67L491.89 432.37L491.66 433.08L491.42 433.78L491.17 434.47L490.92 435.17L490.66 435.86L490.39 436.55L490.12 437.24L489.84 437.93L489.56 438.61L489.27 439.29L488.97 439.97L488.67 440.65L488.36 441.32L488.04 442L487.72 442.66L487.39 443.33L487.06 443.99L486.72 444.65L486.37 445.31L486.02 445.96L485.66 446.62L485.29 447.26L484.92 447.91L484.55 448.55L484.16 449.19L499.15 462.85L499.36 463.05L499.56 463.26L499.74 463.47L499.92 463.69L500.09 463.91L500.25 464.14L500.4 464.37L500.54 464.61L500.67 464.86L500.78 465.1L500.89 465.35L500.99 465.61L501.07 465.86L501.15 466.12L501.22 466.38L501.27 466.65L501.32 466.91L501.35 467.18L501.38 467.45L501.39 467.72L501.39 467.99L501.39 468.26L501.37 468.52L501.34 468.79L501.3 469.06L501.26 469.33L501.2 469.59L501.13 469.86L501.05 470.12L500.96 470.38L500.86 470.63L500.74 470.89L500.62 471.14L500.49 471.38L500.35 471.63L500.19 471.86L500.03 472.1L499.85 472.33L499.67 472.55L499.47 472.77L485.86 487.29L485.77 487.4L485.67 487.5L485.57 487.59L485.46 487.69L485.36 487.78L485.25 487.88L485.14 487.96L485.03 488.05L484.92 488.14L484.81 488.22L484.7 488.3L484.58 488.38L484.46 488.45L484.35 488.53L484.23 488.6L484.11 488.67L483.98 488.73L483.86 488.8L483.74 488.86L483.61 488.92L483.48 488.98L483.36 489.03L483.23 489.08L483.1 489.13L482.97 489.18L482.83 489.22L482.7 489.27L482.57 489.3L482.43 489.34L482.3 489.38L482.16 489.41L482.02 489.44L481.89 489.46L481.75 489.49L481.61 489.51L481.47 489.53L481.33 489.54L481.19 489.56L481.05 489.57L480.91 489.57L480.77 489.58L480.63 489.58L480.49 489.58L480.35 489.58L480.21 489.57L480.07 489.56L479.93 489.55L479.79 489.54L479.65 489.52L479.51 489.5L479.37 489.48L479.24 489.45L479.1 489.43L478.97 489.4L478.83 489.37L478.7 489.33L478.57 489.29L478.43 489.25L478.3 489.21L478.17 489.16L478.04 489.12L477.92 489.07L477.79 489.01L477.66 488.96L477.54 488.9L477.41 488.84L477.29 488.78L477.17 488.71L477.05 488.64L476.93 488.58L476.81 488.5L476.7 488.43L476.58 488.35L476.47 488.27L476.35 488.19L476.24 488.11L476.14 488.02L476.03 487.93L475.92 487.84L475.82 487.75L460.84 474.09L460.22 474.51L459.61 474.93L458.98 475.35L458.36 475.76L457.73 476.16L457.1 476.56L456.46 476.95L455.82 477.34L455.18 477.72L454.53 478.09L453.88 478.46L453.23 478.83L452.57 479.18L451.92 479.54L451.25 479.88L450.59 480.22L449.92 480.55L449.25 480.88L448.57 481.2L447.89 481.52L447.21 481.83L446.53 482.13L445.84 482.43L445.16 482.72L444.46 483.01L443.77 483.29L443.07 483.56L442.37 483.82L441.67 484.08L440.97 484.34L440.26 484.59L439.55 484.83L438.84 485.06L438.13 485.29L437.41 485.51L436.7 485.73L435.98 485.94L435.25 486.14L434.53 486.34L433.81 486.53L434.48 506.78L434.48 506.92L434.48 507.06L434.48 507.19L434.48 507.33L434.47 507.47L434.46 507.61L434.44 507.75L434.43 507.88L434.41 508.02L434.39 508.16L434.36 508.29L434.34 508.43L434.31 508.56L434.28 508.7L434.24 508.83L434.2 508.96L434.16 509.09L434.12 509.22L434.08 509.36L434.03 509.48L433.98 509.61L433.93 509.74L433.87 509.87L433.81 509.99L433.75 510.12L433.69 510.24L433.63 510.36L433.56 510.48L433.49 510.6L433.42 510.72L433.34 510.84L433.27 510.95L433.19 511.07L433.1 511.18L433.02 511.29L432.93 511.4L432.85 511.51L432.75 511.62L432.66 511.72L432.57 511.83L432.51 511.88L432.46 511.94L432.41 511.99L432.35 512.05L432.3 512.1L432.24 512.15L432.19 512.2L432.13 512.25L432.08 512.3L432.02 512.35L431.96 512.4L431.9 512.45L431.84 512.5L431.79 512.55L431.73 512.59L431.67 512.64L431.61 512.68L431.55 512.73L431.48 512.77L431.42 512.82L431.36 512.86L431.3 512.9L431.24 512.94L431.17 512.98L431.11 513.02L431.05 513.06L430.98 513.1L430.92 513.14L430.85 513.18L430.79 513.21L430.72 513.25L430.65 513.28L430.59 513.32L430.52 513.35L430.45 513.38L430.39 513.42L430.32 513.45L430.25 513.48L430.18 513.51L430.11 513.54L430.05 513.56L429.99 513.59L429.93 513.61L429.87 513.64L429.81 513.66L429.75 513.68L429.69 513.7L429.63 513.72L429.57 513.74L429.51 513.76L429.45 513.78L429.39 513.8L429.33 513.82L429.27 513.84L429.2 513.86L429.14 513.87L429.08 513.89L429.02 513.9L428.96 513.92L428.89 513.93L428.83 513.95L428.77 513.96L428.7 513.98L428.64 513.99L428.58 514L428.51 514.01L428.45 514.02L428.39 514.03L428.32 514.04L428.26 514.05L428.19 514.06L428.13 514.07L428.07 514.07L428 514.08L427.94 514.09L427.87 514.09L427.81 514.1L427.74 514.1L427.68 514.11L427.61 514.11L407.71 515.01L407.42 515.02L407.13 515.01L406.84 515L406.55 514.97L406.27 514.93L406 514.88L405.72 514.82L405.45 514.75L405.19 514.67L404.93 514.58L404.67 514.48L404.42 514.37L404.17 514.26L403.93 514.13L403.7 513.99L403.47 513.85L403.25 513.69L403.03 513.53L402.82 513.36L402.62 513.18L402.42 513L402.24 512.8L402.06 512.6L401.88 512.4L401.72 512.18L401.56 511.96L401.41 511.74L401.27 511.51L401.14 511.27L401.02 511.02L400.91 510.77L400.81 510.52L400.72 510.26L400.64 509.99L400.57 509.73L400.51 509.45L400.46 509.18L400.42 508.89L400.39 508.61L400.37 508.32L399.7 488.07L398.97 487.94L398.23 487.81L397.5 487.68L396.77 487.53L396.04 487.38L395.31 487.23L394.59 487.06L393.87 486.89L393.14 486.72L392.42 486.53L391.71 486.34L390.99 486.15L390.28 485.95L389.56 485.74L388.85 485.52L388.15 485.3L387.44 485.07L386.74 484.84L386.04 484.6L385.34 484.35L384.64 484.1L383.95 483.84L383.26 483.57L382.57 483.3L381.88 483.02L381.2 482.73L380.52 482.44L379.84 482.15L379.16 481.84L378.49 481.53L377.82 481.22L377.15 480.9L376.49 480.57L375.83 480.23L375.17 479.89L374.51 479.55L373.86 479.2L373.21 478.84L372.57 478.47L371.93 478.1L357.9 493.08L357.8 493.18L357.7 493.28L357.6 493.38L357.5 493.47L357.39 493.57L357.29 493.66L357.18 493.75L357.07 493.84L356.96 493.92L356.84 494L356.73 494.08L356.62 494.16L356.5 494.24L356.38 494.31L356.26 494.38L356.14 494.45L356.02 494.52L355.89 494.58L355.77 494.64L355.64 494.7L355.52 494.76L355.39 494.81L355.26 494.87L355.13 494.92L355 494.96L354.87 495.01L354.73 495.05L354.6 495.09L354.47 495.13L354.33 495.16L354.2 495.19L354.06 495.22L353.92 495.25L353.78 495.27L353.64 495.29L353.51 495.31L353.37 495.33L353.23 495.34L353.08 495.35L352.94 495.36L352.8 495.36L352.66 495.37L352.52 495.37L352.38 495.36L352.24 495.36L352.1 495.35L351.96 495.34L351.82 495.32L351.68 495.31L351.55 495.29L351.41 495.26L351.27 495.24L351.14 495.21L351 495.18L350.87 495.15L350.73 495.11L350.6 495.08L350.47 495.04L350.34 494.99L350.21 494.95L350.08 494.9L349.95 494.85L349.82 494.8L349.7 494.74L349.57 494.68L349.45 494.62L349.32 494.56L349.2 494.5L349.08 494.43L348.96 494.36L348.85 494.29L348.73 494.21L348.61 494.14L348.5 494.06L348.39 493.98L348.28 493.89L348.17 493.81L348.06 493.72L347.96 493.63L347.85 493.53L333.32 480.28L333.22 480.18L333.12 480.09L333.02 479.99L332.92 479.89L332.83 479.79L332.74 479.68L332.65 479.58L332.56 479.47L332.48 479.36L332.4 479.25L332.32 479.14L332.24 479.03L332.16 478.91L332.09 478.8L332.02 478.68L331.95 478.56L331.88 478.44L331.82 478.32L331.76 478.2L331.7 478.07L331.65 477.95L331.59 477.82L331.54 477.7L331.49 477.57L331.45 477.44L331.4 477.31L331.36 477.18L331.32 477.05L331.29 476.92L331.26 476.78L331.23 476.65L331.2 476.51L331.17 476.38L331.15 476.24L331.13 476.11L331.11 475.97L331.1 475.83L331.09 475.69L331.08 475.55L331.07 475.42L331.07 475.28L331.07 475.14L331.07 475L331.08 474.86L331.08 474.72L331.09 474.58L331.11 474.44L331.12 474.31L331.14 474.17L331.16 474.03L331.19 473.9L331.22 473.76L331.24 473.63L331.28 473.5L331.31 473.36L331.35 473.23L331.39 473.1L331.43 472.97L331.48 472.84L331.52 472.71L331.57 472.58L331.63 472.45L331.68 472.33L331.74 472.2L331.8 472.08L331.86 471.95L331.93 471.83L331.99 471.71L332.06 471.59L332.14 471.47L332.21 471.35L332.29 471.24L332.37 471.12L332.45 471.01L332.53 470.9L332.62 470.79L332.71 470.68L332.8 470.57L332.89 470.47L332.99 470.36L347.02 455.39L346.59 454.79L346.18 454.18L345.76 453.57L345.36 452.96L344.95 452.34L344.56 451.72L344.17 451.1L343.79 450.47L343.41 449.84L343.04 449.2L342.67 448.57L342.31 447.93L341.96 447.28L341.61 446.63L341.27 445.98L340.93 445.33L340.61 444.67L340.28 444.02L339.97 443.35L339.65 442.69L339.35 442.02L339.05 441.35L338.76 440.68L338.47 440L338.19 439.32L337.92 438.64L337.65 437.96L337.39 437.27L337.14 436.58L336.89 435.89L336.65 435.2L336.42 434.5L336.19 433.8L335.96 433.1L335.75 432.4L335.54 431.69L335.34 430.99L335.14 430.28L334.95 429.57L334.77 428.85L314.25 429.78L313.96 429.79L313.67 429.78L313.38 429.77L313.1 429.74L312.82 429.7L312.54 429.65L312.27 429.59L312 429.52L311.73 429.44L311.47 429.35L311.21 429.25L310.96 429.15L310.72 429.03L310.48 428.9L310.24 428.76L310.01 428.62L309.79 428.46L309.57 428.3L309.37 428.13L309.16 427.95L308.97 427.77L308.78 427.58L308.6 427.38L308.43 427.17L308.26 426.96L308.1 426.74L307.96 426.51L307.82 426.28L307.69 426.04L307.57 425.79L307.45 425.54L307.35 425.29L307.26 425.03L307.18 424.77L307.11 424.5L307.05 424.22L307 423.95L306.96 423.66L306.93 423.38L306.92 423.09L306.26 403.45L306.26 403.31L306.26 403.17L306.26 403.03L306.27 402.89L306.28 402.75L306.29 402.61L306.3 402.48L306.32 402.34L306.33 402.2L306.36 402.07L306.38 401.93L306.41 401.8L306.44 401.66L306.47 401.53L306.5 401.39L306.54 401.26L306.58 401.13L306.62 401L306.67 400.87L306.71 400.74L306.76 400.61L306.82 400.48L306.87 400.36L306.93 400.23L306.99 400.11L307.05 399.98L307.12 399.86L307.18 399.74L307.25 399.62L307.33 399.5L307.4 399.39L307.48 399.27L307.56 399.16L307.64 399.04L307.72 398.93L307.81 398.82L307.9 398.71L307.99 398.6L308.08 398.5L308.18 398.4L308.28 398.29L308.38 398.19L308.48 398.1L308.58 398L308.68 397.91L308.79 397.81L308.9 397.73L309.01 397.64L309.12 397.55L309.23 397.47L309.35 397.39L309.46 397.31L309.58 397.24L309.7 397.16L309.82 397.09L309.94 397.02L310.06 396.96L310.18 396.89L310.31 396.83L310.43 396.77L310.56 396.71L310.69 396.66L310.82 396.61L310.95 396.56L311.08 396.51L311.21 396.47L311.34 396.42L311.48 396.39L311.61 396.35L311.75 396.31L311.88 396.28L312.02 396.25L312.15 396.23L312.29 396.2L312.43 396.18L312.57 396.16L312.71 396.15L312.85 396.13L312.99 396.12L313.13 396.11L333.65 395.19L333.78 394.46L333.92 393.73L334.07 393.01L334.23 392.29L334.39 391.57L334.56 390.85L334.73 390.13L334.91 389.41L335.1 388.69L335.3 387.98L335.5 387.27L335.71 386.56L335.92 385.85L336.14 385.15L336.37 384.44L336.6 383.74L336.84 383.04L337.09 382.34L337.34 381.65L337.6 380.95L337.87 380.26L338.14 379.57L338.42 378.89L338.7 378.2L338.99 377.52L339.29 376.84L339.59 376.17L339.9 375.49L340.22 374.82L340.54 374.15L340.87 373.49L341.2 372.82L341.54 372.16L341.89 371.51L342.24 370.85L342.6 370.2L342.97 369.55L343.34 368.91L343.71 368.27L344.1 367.63L329.11 353.96L328.9 353.76L328.71 353.56L328.52 353.35L328.34 353.13L328.17 352.9L328.01 352.68L327.86 352.44L327.72 352.2L327.59 351.96L327.48 351.71L327.37 351.46L327.27 351.21L327.19 350.95L327.11 350.7L327.04 350.43L326.99 350.17L326.94 349.9L326.91 349.64L326.88 349.37L326.87 349.1L326.87 348.83L326.87 348.56L326.89 348.29L326.92 348.02L326.95 347.76L327 347.49L327.06 347.22L327.13 346.96L327.21 346.7L327.3 346.44L327.4 346.18L327.51 345.93L327.64 345.68L327.77 345.43L327.91 345.19L328.06 344.95L328.23 344.72L328.4 344.49L328.59 344.27L328.78 344.05L342.4 329.52L342.49 329.42L342.59 329.32L342.69 329.22L342.8 329.13L342.9 329.03L343.01 328.94L343.12 328.85L343.22 328.76L343.34 328.68L343.45 328.6L343.56 328.52L343.68 328.44L343.79 328.36L343.91 328.29L344.03 328.22L344.15 328.15L344.28 328.08L344.4 328.02L344.52 327.96L344.65 327.9L344.78 327.84L344.9 327.79L345.03 327.73L345.16 327.69L345.29 327.64L345.43 327.59L345.56 327.55L345.69 327.51L345.83 327.47L345.96 327.44L346.1 327.41L346.24 327.38L346.37 327.35L346.51 327.33L346.65 327.31L346.79 327.29L346.93 327.27L347.07 327.26L347.21 327.25L347.35 327.24L347.49 327.24L347.63 327.23L347.77 327.23L347.91 327.24L348.05 327.24L348.19 327.25L348.33 327.26L348.47 327.28L348.61 327.29L348.75 327.31L348.88 327.34L349.02 327.36L349.16 327.39L349.29 327.42L349.43 327.45L349.56 327.49L349.69 327.52L349.82 327.56L349.96 327.61L350.09 327.65L350.21 327.7L350.34 327.75L350.47 327.8L350.6 327.86L350.72 327.92L350.85 327.98L350.97 328.04L351.09 328.1L351.21 328.17L351.33 328.24L351.45 328.31L351.56 328.39L351.68 328.46L351.79 328.54L351.9 328.63L352.01 328.71L352.12 328.8L352.23 328.88L352.34 328.97L352.44 329.07L367.42 342.73L368.04 342.3L368.65 341.88L369.27 341.47L369.9 341.06L370.53 340.65L371.16 340.26L371.8 339.86L372.44 339.48L373.08 339.1L373.73 338.72L374.37 338.35L375.03 337.99L375.68 337.63L376.34 337.28L377.01 336.93L377.67 336.59L378.34 336.26L379.01 335.93L379.69 335.61L380.36 335.3L381.05 334.99L381.73 334.68L382.41 334.39L383.1 334.09L383.79 333.81L384.49 333.53L385.19 333.26L385.88 332.99L386.59 332.73L387.29 332.48L388 332.23L388.71 331.99L389.42 331.75L390.13 331.52L390.85 331.3L391.56 331.09L392.28 330.88L393 330.68L393.73 330.48L394.45 330.29L393.78 310.04L393.78 309.9L393.77 309.76L393.78 309.62L393.78 309.48L393.79 309.34L393.8 309.21L393.81 309.07L393.83 308.93L393.85 308.79L393.87 308.66L393.89 308.52L393.92 308.39L393.95 308.25L393.98 308.12L394.02 307.99L394.05 307.85L394.09 307.72L394.14 307.59L394.18 307.46L394.23 307.33L394.28 307.2L394.33 307.08L394.39 306.95L394.44 306.82L394.5 306.7L394.57 306.58L394.63 306.45L394.7 306.33L394.77 306.21L394.84 306.1L394.92 305.98L394.99 305.86L395.07 305.75L395.15 305.63L395.24 305.52L395.32 305.41L395.41 305.3L395.5 305.2L395.6 305.09L395.69 304.99L395.79 304.89L395.89 304.79L395.99 304.69L396.09 304.59L396.2 304.5L396.31 304.41L396.41 304.32L396.52 304.23L396.63 304.15L396.75 304.06L396.86 303.98L396.98 303.9L397.09 303.83L397.21 303.76L397.33 303.68L397.45 303.62L397.57 303.55L397.7 303.48L397.82 303.42L397.95 303.36L398.07 303.31L398.2 303.25L398.33 303.2L398.46 303.15L398.59 303.1L398.72 303.06L398.86 303.02L398.99 302.98L399.12 302.94L399.26 302.91L399.4 302.87L399.53 302.85L399.67 302.82L399.81 302.79L399.95 302.77L400.09 302.75L400.22 302.74L400.36 302.73L400.51 302.72L400.65 302.71L420.55 301.81L420.84 301.8L421.13 301.81L421.42 301.82ZM412.55 360.88L412.11 360.9L411.67 360.92L411.23 360.95L410.79 360.99L410.35 361.02L409.91 361.07L409.48 361.11L409.04 361.16L408.61 361.21L408.17 361.27L407.74 361.33L407.31 361.39L406.88 361.46L406.45 361.53L406.02 361.61L405.59 361.69L405.16 361.77L404.73 361.85L404.31 361.95L403.88 362.04L403.46 362.14L403.03 362.24L402.61 362.34L402.19 362.45L401.77 362.57L401.35 362.68L400.93 362.8L400.51 362.93L400.1 363.06L399.68 363.19L399.27 363.32L398.85 363.46L398.44 363.61L398.03 363.75L397.62 363.9L397.21 364.06L396.81 364.22L396.4 364.38L396 364.54L395.59 364.71L394.23 365.32L392.89 365.96L391.57 366.64L390.28 367.36L389.02 368.12L387.78 368.91L386.58 369.73L385.4 370.59L384.24 371.48L383.12 372.41L382.03 373.36L380.97 374.35L379.94 375.36L378.94 376.4L377.98 377.48L377.04 378.57L376.14 379.69L375.28 380.84L374.45 382.01L373.65 383.21L372.89 384.42L372.17 385.66L371.48 386.92L370.83 388.2L370.22 389.5L369.64 390.81L369.11 392.14L368.61 393.49L368.16 394.85L367.74 396.23L367.37 397.62L367.04 399.02L366.75 400.44L366.51 401.86L366.31 403.29L366.15 404.74L366.04 406.19L365.97 407.65L365.95 409.11L365.98 410.59L366.02 411.54L366.08 412.48L366.15 413.42L366.25 414.36L366.37 415.3L366.5 416.22L366.65 417.15L366.82 418.07L367.01 418.98L367.21 419.89L367.43 420.79L367.67 421.69L367.93 422.58L368.21 423.46L368.5 424.34L368.81 425.21L369.14 426.07L369.48 426.93L369.84 427.78L370.22 428.62L370.62 429.45L371.03 430.28L371.46 431.1L371.9 431.91L372.36 432.71L372.84 433.5L373.34 434.28L373.85 435.06L374.37 435.82L374.92 436.58L375.47 437.32L376.05 438.06L376.64 438.78L377.24 439.5L377.86 440.2L378.5 440.9L379.15 441.58L379.82 442.25L380.5 442.91L381.2 443.56L381.91 444.19L382.63 444.81L383.36 445.41L384.1 446L384.85 446.57L385.61 447.13L386.38 447.67L387.16 448.19L387.95 448.7L388.74 449.19L389.55 449.66L390.36 450.12L391.19 450.56L392.02 450.99L392.85 451.39L393.7 451.79L394.55 452.16L395.41 452.52L396.28 452.86L397.15 453.18L398.03 453.49L398.92 453.78L399.81 454.05L400.71 454.3L401.62 454.54L402.52 454.76L403.44 454.96L404.36 455.14L405.28 455.31L406.21 455.46L407.15 455.59L408.08 455.7L409.03 455.79L409.97 455.87L410.92 455.93L411.87 455.97L412.83 455.99L413.79 455.99L414.75 455.98L415.71 455.94L416.15 455.92L416.59 455.89L417.03 455.86L417.47 455.83L417.91 455.79L418.34 455.75L418.78 455.71L419.22 455.66L419.65 455.61L420.08 455.55L420.52 455.49L420.95 455.43L421.38 455.36L421.81 455.29L422.24 455.21L422.67 455.13L423.1 455.05L423.53 454.96L423.95 454.87L424.38 454.78L424.8 454.68L425.23 454.58L425.65 454.47L426.07 454.36L426.49 454.25L426.91 454.13L427.33 454.01L427.75 453.89L428.16 453.76L428.58 453.63L428.99 453.49L429.4 453.35L429.82 453.21L430.23 453.06L430.64 452.91L431.05 452.76L431.45 452.6L431.86 452.44L432.26 452.27L432.67 452.1L434.03 451.5L435.37 450.86L436.69 450.17L437.98 449.46L439.24 448.7L440.48 447.91L441.68 447.08L442.86 446.22L444.01 445.33L445.14 444.41L446.23 443.45L447.29 442.47L448.32 441.46L449.32 440.41L450.28 439.34L451.22 438.25L452.12 437.12L452.98 435.98L453.81 434.8L454.61 433.61L455.37 432.39L456.09 431.15L456.78 429.9L457.43 428.62L458.04 427.32L458.62 426.01L459.15 424.68L459.65 423.33L460.1 421.97L460.52 420.59L460.89 419.2L461.22 417.8L461.51 416.38L461.75 414.96L461.95 413.52L462.11 412.08L462.22 410.63L462.29 409.17L462.31 407.7L462.28 406.23L462.24 405.28L462.18 404.34L462.11 403.39L462.01 402.45L461.89 401.52L461.76 400.59L461.61 399.67L461.44 398.75L461.25 397.84L461.05 396.93L460.83 396.03L460.59 395.13L460.33 394.24L460.05 393.36L459.76 392.48L459.45 391.61L459.12 390.74L458.78 389.89L458.42 389.04L458.04 388.2L457.64 387.36L457.23 386.54L456.8 385.72L456.36 384.91L455.9 384.11L455.42 383.32L454.92 382.53L454.41 381.76L453.89 380.99L453.34 380.24L452.79 379.49L452.21 378.76L451.62 378.03L451.02 377.32L450.4 376.61L449.76 375.92L449.11 375.24L448.44 374.57L447.76 373.91L447.06 373.26L446.35 372.62L445.63 372L444.9 371.4L444.16 370.81L443.41 370.24L442.65 369.69L441.88 369.15L441.1 368.63L440.31 368.12L439.51 367.63L438.71 367.15L437.89 366.7L437.07 366.25L436.24 365.83L435.4 365.42L434.56 365.03L433.71 364.66L432.85 364.3L431.98 363.96L431.11 363.64L430.22 363.33L429.34 363.04L428.45 362.77L427.55 362.52L426.64 362.28L425.73 362.06L424.82 361.86L423.9 361.68L422.97 361.51L422.05 361.36L421.11 361.23L420.17 361.12L419.23 361.02L418.29 360.95L417.34 360.89L416.39 360.85L415.43 360.83L414.47 360.83L413.51 360.84L412.55 360.88Z" id="b7kZEw6hDR"></path><path d="M634.58 321.68C634.58 494.81 493.76 635.37 320.3 635.37C146.84 635.37 6.01 494.81 6.01 321.68C6.01 148.55 146.84 7.99 320.3 7.99C493.76 7.99 634.58 148.55 634.58 321.68Z" id="c30A5acUvw"></path><clipPath id="clipd2mQUf1lBH"><use xlink:href="#c30A5acUvw" opacity="1"></use></clipPath></defs><g><g><g><use xlink:href="#akuRmY8Ws" opacity="1" fill="rgba(148, 165, 184, 0.5)" fill-opacity="1"></use><g><use xlink:href="#akuRmY8Ws" opacity="1" fill-opacity="0" stroke="#000000" stroke-width="1" stroke-opacity="0"></use></g></g><g><use xlink:href="#b7kZEw6hDR" opacity="1" fill="rgba(148, 165, 184, 0.5)" fill-opacity="1"></use><g><use xlink:href="#b7kZEw6hDR" opacity="1" fill-opacity="0" stroke="#000000" stroke-width="1" stroke-opacity="0"></use></g></g><g><use xlink:href="#c30A5acUvw" opacity="1" fill="#f8f8f9" fill-opacity="0"></use><g clip-path="url(#clipd2mQUf1lBH)"><use xlink:href="#c30A5acUvw" opacity="1" fill-opacity="0" stroke="rgba(148, 165, 184, 0.5)" stroke-width="75" stroke-opacity="1"></use></g></g></g></g></svg>