<?xml version="1.0" encoding="UTF-8" standalone="no"?>
<!DOCTYPE svg PUBLIC "-//W3C//DTD SVG 1.1//EN" "http://www.w3.org/Graphics/SVG/1.1/DTD/svg11.dtd">
<svg version="1.1" xmlns="http://www.w3.org/2000/svg" xmlns:xlink="http://www.w3.org/1999/xlink" preserveAspectRatio="xMidYMid meet" viewBox="0 0 640 640" width="18" height="18"><defs><path d="M290.28 130.01L290.46 130.02L290.64 130.03L290.81 130.05L290.99 130.07L291.17 130.09L291.34 130.12L291.52 130.15L291.69 130.18L291.86 130.22L292.04 130.26L292.21 130.31L292.38 130.36L292.55 130.41L292.72 130.46L292.89 130.52L293.06 130.58L316.8 139.58L317.14 139.72L317.48 139.87L317.81 140.03L318.13 140.21L318.44 140.4L318.74 140.59L319.03 140.8L319.31 141.02L319.58 141.25L319.84 141.49L320.09 141.74L320.33 142L320.56 142.26L320.78 142.54L320.98 142.82L321.18 143.11L321.36 143.4L321.54 143.7L321.7 144.01L321.84 144.33L321.98 144.65L322.11 144.97L322.22 145.3L322.32 145.63L322.4 145.97L322.48 146.31L322.54 146.66L322.59 147.01L322.62 147.35L322.64 147.71L322.65 148.06L322.64 148.41L322.62 148.77L322.58 149.13L322.53 149.48L322.47 149.84L322.39 150.2L322.29 150.55L322.18 150.9L322.06 151.26L312.79 175.72L313.58 176.24L314.38 176.77L315.17 177.3L315.95 177.84L316.73 178.39L317.5 178.94L318.27 179.51L319.03 180.07L319.79 180.65L320.54 181.23L321.28 181.82L322.02 182.42L322.76 183.02L323.49 183.63L324.21 184.24L324.93 184.87L325.64 185.49L326.35 186.13L327.05 186.77L327.75 187.42L328.43 188.07L329.12 188.73L329.79 189.4L330.47 190.07L331.13 190.75L331.79 191.44L332.44 192.13L333.09 192.82L333.73 193.53L334.36 194.24L334.99 194.95L335.61 195.67L336.22 196.4L336.83 197.13L337.43 197.87L338.03 198.61L338.61 199.36L339.19 200.11L339.77 200.87L340.34 201.64L364.19 190.89L364.54 190.75L364.88 190.62L365.23 190.5L365.58 190.4L365.93 190.31L366.28 190.24L366.64 190.18L366.99 190.14L367.34 190.11L367.7 190.1L368.05 190.09L368.4 190.11L368.75 190.13L369.1 190.17L369.44 190.22L369.79 190.29L370.12 190.37L370.46 190.46L370.79 190.57L371.12 190.68L371.44 190.81L371.76 190.95L372.07 191.11L372.38 191.27L372.68 191.45L372.97 191.64L373.26 191.84L373.54 192.05L373.81 192.28L374.07 192.51L374.33 192.75L374.57 193.01L374.81 193.28L375.04 193.56L375.25 193.84L375.46 194.14L375.65 194.45L375.84 194.77L376.01 195.09L376.17 195.43L386.59 218.57L386.67 218.74L386.74 218.9L386.8 219.07L386.86 219.24L386.92 219.41L386.98 219.58L387.03 219.75L387.08 219.92L387.12 220.09L387.16 220.26L387.2 220.44L387.24 220.61L387.27 220.79L387.3 220.96L387.32 221.14L387.34 221.31L387.36 221.49L387.37 221.66L387.38 221.84L387.39 222.02L387.39 222.19L387.39 222.37L387.39 222.55L387.38 222.72L387.37 222.9L387.36 223.08L387.34 223.25L387.32 223.43L387.3 223.6L387.27 223.78L387.24 223.95L387.21 224.13L387.17 224.3L387.13 224.48L387.08 224.65L387.03 224.82L386.98 224.99L386.93 225.16L386.87 225.33L386.81 225.5L386.74 225.67L386.67 225.84L386.6 226L386.53 226.16L386.45 226.32L386.37 226.48L386.28 226.64L386.2 226.8L386.11 226.95L386.01 227.1L385.92 227.25L385.82 227.4L385.72 227.54L385.61 227.69L385.51 227.83L385.4 227.97L385.29 228.1L385.17 228.24L385.05 228.37L384.93 228.5L384.81 228.63L384.69 228.75L384.56 228.88L384.43 229L384.3 229.11L384.16 229.23L384.03 229.34L383.89 229.45L383.75 229.56L383.6 229.66L383.46 229.76L383.31 229.86L383.16 229.96L383.01 230.05L382.85 230.14L382.7 230.23L382.54 230.32L382.38 230.4L382.22 230.48L382.06 230.55L358.2 241.3L358.4 242.23L358.59 243.16L358.77 244.1L358.94 245.04L359.1 245.97L359.26 246.91L359.4 247.85L359.54 248.79L359.67 249.74L359.79 250.68L359.9 251.62L360 252.57L360.1 253.52L360.18 254.46L360.26 255.41L360.32 256.36L360.38 257.3L360.43 258.25L360.48 259.2L360.51 260.15L360.53 261.1L360.55 262.05L360.56 263L360.56 263.95L360.55 264.9L360.53 265.85L360.5 266.8L360.46 267.75L360.42 268.7L360.37 269.65L360.3 270.6L360.23 271.54L360.15 272.49L360.07 273.44L359.97 274.39L359.86 275.33L359.75 276.28L359.63 277.22L359.5 278.16L359.36 279.1L383.82 288.38L383.99 288.44L384.16 288.51L384.32 288.58L384.48 288.66L384.64 288.73L384.8 288.82L384.96 288.9L385.12 288.99L385.27 289.08L385.42 289.17L385.57 289.26L385.72 289.36L385.86 289.46L386.01 289.57L386.15 289.68L386.29 289.78L386.42 289.9L386.56 290.01L386.69 290.13L386.82 290.25L386.95 290.37L387.07 290.5L387.2 290.62L387.32 290.75L387.43 290.88L387.55 291.02L387.66 291.16L387.77 291.29L387.88 291.44L387.98 291.58L388.09 291.72L388.18 291.87L388.28 292.02L388.37 292.17L388.47 292.33L388.55 292.48L388.64 292.64L388.72 292.8L388.8 292.96L388.87 293.13L388.95 293.29L389.01 293.46L389.08 293.62L389.14 293.79L389.2 293.96L389.26 294.13L389.31 294.3L389.36 294.47L389.4 294.64L389.44 294.82L389.48 294.99L389.52 295.16L389.55 295.34L389.57 295.51L389.6 295.69L389.62 295.86L389.64 296.04L389.65 296.22L389.66 296.39L389.67 296.57L389.67 296.75L389.67 296.92L389.67 297.1L389.66 297.28L389.65 297.45L389.64 297.63L389.62 297.81L389.6 297.98L389.58 298.16L389.55 298.33L389.52 298.51L389.48 298.68L389.45 298.86L389.41 299.03L389.36 299.2L389.31 299.37L389.26 299.55L389.21 299.72L389.15 299.89L389.09 300.05L380.09 323.79L379.95 324.14L379.8 324.47L379.64 324.8L379.46 325.12L379.27 325.43L379.08 325.73L378.87 326.02L378.65 326.3L378.42 326.57L378.18 326.83L377.93 327.08L377.67 327.32L377.41 327.55L377.13 327.77L376.85 327.98L376.56 328.17L376.27 328.36L375.97 328.53L375.66 328.69L375.34 328.84L375.02 328.98L374.7 329.1L374.37 329.21L374.04 329.31L373.7 329.4L373.36 329.47L373.01 329.53L372.67 329.58L372.32 329.61L371.96 329.63L371.61 329.64L371.26 329.63L370.9 329.61L370.54 329.58L370.19 329.53L369.83 329.46L369.47 329.38L369.12 329.29L368.77 329.18L368.41 329.05L343.95 319.78L343.43 320.58L342.9 321.37L342.37 322.16L341.83 322.94L341.28 323.72L340.72 324.49L340.16 325.26L339.6 326.02L339.02 326.78L338.44 327.53L337.85 328.28L337.25 329.02L336.65 329.75L336.04 330.48L335.43 331.21L334.8 331.92L334.18 332.64L333.54 333.34L332.9 334.04L332.25 334.74L331.6 335.43L330.94 336.11L330.27 336.79L329.6 337.46L328.92 338.12L328.23 338.78L327.54 339.43L326.85 340.08L326.14 340.72L325.43 341.35L324.72 341.98L324 342.6L323.27 343.22L322.54 343.82L321.8 344.43L321.06 345.02L320.31 345.61L319.56 346.19L318.8 346.76L318.03 347.33L328.78 371.19L328.92 371.53L329.05 371.87L329.17 372.22L329.27 372.57L329.36 372.93L329.43 373.28L329.49 373.63L329.53 373.99L329.56 374.34L329.57 374.69L329.58 375.04L329.56 375.4L329.54 375.75L329.5 376.09L329.44 376.44L329.38 376.78L329.3 377.12L329.21 377.45L329.1 377.79L328.99 378.11L328.86 378.44L328.72 378.75L328.56 379.07L328.4 379.37L328.22 379.67L328.03 379.97L327.83 380.25L327.62 380.53L327.39 380.8L327.16 381.07L326.91 381.32L326.66 381.57L326.39 381.8L326.11 382.03L325.82 382.25L325.53 382.45L325.22 382.65L324.9 382.83L324.57 383L324.23 383.16L301.09 393.59L300.93 393.66L300.76 393.73L300.6 393.79L300.43 393.85L300.26 393.91L300.09 393.97L299.92 394.02L299.75 394.07L299.58 394.11L299.4 394.16L299.23 394.19L299.06 394.23L298.88 394.26L298.71 394.29L298.53 394.31L298.36 394.33L298.18 394.35L298 394.36L297.83 394.37L297.65 394.38L297.47 394.39L297.3 394.39L297.12 394.38L296.94 394.38L296.77 394.37L296.59 394.35L296.41 394.33L296.24 394.31L296.06 394.29L295.89 394.26L295.71 394.23L295.54 394.2L295.36 394.16L295.19 394.12L295.02 394.07L294.84 394.03L294.67 393.97L294.5 393.92L294.33 393.86L294.16 393.8L294 393.73L293.83 393.66L293.67 393.59L293.5 393.52L293.34 393.44L293.18 393.36L293.03 393.27L292.87 393.19L292.72 393.1L292.56 393L292.42 392.91L292.27 392.81L292.12 392.71L291.98 392.6L291.84 392.5L291.7 392.39L291.56 392.28L291.43 392.16L291.3 392.04L291.17 391.92L291.04 391.8L290.91 391.68L290.79 391.55L290.67 391.42L290.55 391.29L290.44 391.15L290.32 391.02L290.21 390.88L290.11 390.74L290 390.59L289.9 390.45L289.8 390.3L289.71 390.15L289.61 390L289.52 389.85L289.43 389.69L289.35 389.53L289.27 389.37L289.19 389.21L289.11 389.05L278.37 365.19L277.44 365.39L276.51 365.58L275.57 365.76L274.64 365.93L273.7 366.1L272.77 366.25L271.83 366.4L270.89 366.53L269.95 366.66L269 366.78L268.06 366.89L267.11 367L266.17 367.09L265.22 367.18L264.28 367.25L263.33 367.32L262.38 367.38L261.43 367.43L260.48 367.47L259.53 367.51L258.58 367.53L257.63 367.55L256.68 367.55L255.73 367.55L254.78 367.54L253.83 367.52L252.88 367.5L251.93 367.46L250.98 367.42L250.03 367.36L249.08 367.3L248.13 367.23L247.18 367.15L246.23 367.06L245.28 366.96L244.34 366.86L243.39 366.74L242.45 366.62L241.5 366.49L240.56 366.35L231.29 390.81L231.23 390.98L231.16 391.15L231.08 391.31L231.01 391.47L230.93 391.63L230.85 391.79L230.77 391.95L230.68 392.11L230.59 392.26L230.5 392.41L230.4 392.56L230.3 392.71L230.2 392.85L230.1 393L229.99 393.14L229.88 393.28L229.77 393.41L229.65 393.55L229.54 393.68L229.42 393.81L229.3 393.94L229.17 394.06L229.04 394.19L228.91 394.31L228.78 394.42L228.65 394.54L228.51 394.65L228.37 394.76L228.23 394.87L228.09 394.97L227.94 395.08L227.79 395.17L227.64 395.27L227.49 395.36L227.34 395.45L227.18 395.54L227.03 395.63L226.87 395.71L226.7 395.79L226.54 395.86L226.45 395.9L226.36 395.94L226.27 395.98L226.18 396.01L226.09 396.05L226 396.08L225.91 396.12L225.82 396.15L225.73 396.18L225.64 396.21L225.55 396.24L225.46 396.27L225.36 396.3L225.27 396.32L225.18 396.35L225.09 396.37L224.99 396.4L224.9 396.42L224.81 396.44L224.71 396.46L224.62 396.48L224.53 396.5L224.43 396.52L224.34 396.53L224.24 396.55L224.15 396.56L224.06 396.58L223.96 396.59L223.87 396.6L223.77 396.61L223.68 396.62L223.58 396.63L223.49 396.64L223.39 396.64L223.3 396.65L223.2 396.65L223.11 396.66L223.01 396.66L222.92 396.66L222.82 396.66L222.74 396.66L222.66 396.66L222.58 396.66L222.49 396.66L222.41 396.65L222.33 396.65L222.25 396.64L222.17 396.64L222.09 396.63L222.01 396.62L221.93 396.62L221.84 396.61L221.76 396.6L221.68 396.59L221.6 396.58L221.52 396.57L221.44 396.56L221.36 396.54L221.28 396.53L221.2 396.51L221.12 396.5L221.04 396.48L220.96 396.47L220.88 396.45L220.8 396.43L220.72 396.41L220.64 396.39L220.56 396.37L220.48 396.35L220.4 396.33L220.32 396.31L220.24 396.29L220.16 396.26L220.08 396.24L220 396.21L219.92 396.19L219.85 396.16L219.77 396.13L219.69 396.1L219.61 396.07L195.88 387.08L195.53 386.94L195.19 386.79L194.86 386.63L194.54 386.45L194.23 386.26L193.93 386.07L193.64 385.86L193.36 385.64L193.09 385.41L192.83 385.17L192.58 384.92L192.34 384.66L192.11 384.4L191.9 384.12L191.69 383.84L191.49 383.55L191.31 383.26L191.14 382.96L190.98 382.65L190.83 382.33L190.69 382.01L190.57 381.69L190.45 381.36L190.35 381.03L190.27 380.69L190.19 380.35L190.13 380L190.09 379.65L190.05 379.3L190.03 378.95L190.03 378.6L190.03 378.24L190.06 377.89L190.09 377.53L190.14 377.18L190.21 376.82L190.29 376.46L190.38 376.11L190.49 375.76L190.62 375.4L199.89 350.94L199.09 350.42L198.3 349.89L197.51 349.36L196.72 348.82L195.95 348.27L195.17 347.71L194.41 347.15L193.64 346.59L192.89 346.01L192.13 345.43L191.39 344.84L190.65 344.24L189.91 343.64L189.18 343.03L188.46 342.42L187.74 341.79L187.03 341.17L186.32 340.53L185.62 339.89L184.93 339.24L184.24 338.59L183.55 337.93L182.88 337.26L182.21 336.59L181.54 335.91L180.88 335.23L180.23 334.53L179.58 333.84L178.94 333.13L178.31 332.43L177.68 331.71L177.06 330.99L176.45 330.26L175.84 329.53L175.24 328.79L174.65 328.05L174.06 327.3L173.48 326.55L172.9 325.79L172.34 325.02L148.48 335.77L148.32 335.84L148.15 335.91L147.98 335.97L147.82 336.03L147.65 336.09L147.48 336.15L147.31 336.2L147.13 336.25L146.96 336.29L146.79 336.34L146.62 336.37L146.44 336.41L146.27 336.44L146.09 336.47L145.92 336.49L145.74 336.51L145.57 336.53L145.39 336.54L145.21 336.55L145.04 336.56L144.86 336.57L144.68 336.57L144.51 336.56L144.33 336.56L144.15 336.55L143.98 336.53L143.8 336.51L143.63 336.49L143.45 336.47L143.27 336.44L143.1 336.41L142.93 336.38L142.75 336.34L142.58 336.3L142.4 336.25L142.23 336.21L142.06 336.15L141.89 336.1L141.72 336.04L141.55 335.98L141.38 335.91L141.22 335.84L141.05 335.77L140.89 335.7L140.73 335.62L140.57 335.54L140.41 335.45L140.26 335.37L140.11 335.28L139.95 335.18L139.8 335.09L139.66 334.99L139.51 334.89L139.37 334.78L139.23 334.68L139.09 334.57L138.95 334.46L138.82 334.34L138.68 334.22L138.55 334.1L138.43 333.98L138.3 333.86L138.18 333.73L138.06 333.6L137.94 333.47L137.83 333.33L137.71 333.2L137.6 333.06L137.5 332.92L137.39 332.77L137.29 332.63L137.19 332.48L137.09 332.33L137 332.18L136.91 332.03L136.82 331.87L136.74 331.71L136.66 331.55L136.58 331.39L136.5 331.23L126.08 308.09L126.01 307.92L125.94 307.76L125.87 307.59L125.81 307.42L125.75 307.25L125.7 307.08L125.64 306.91L125.6 306.74L125.55 306.57L125.51 306.4L125.47 306.22L125.44 306.05L125.4 305.87L125.38 305.7L125.35 305.52L125.33 305.35L125.31 305.17L125.3 305L125.29 304.82L125.28 304.64L125.28 304.47L125.28 304.29L125.28 304.11L125.29 303.94L125.3 303.76L125.31 303.58L125.33 303.41L125.35 303.23L125.37 303.06L125.4 302.88L125.43 302.7L125.47 302.53L125.5 302.36L125.55 302.18L125.59 302.01L125.64 301.84L125.69 301.67L125.75 301.5L125.8 301.33L125.87 301.16L125.93 300.99L126 300.82L126.07 300.66L126.15 300.5L126.22 300.34L126.31 300.18L126.39 300.02L126.48 299.86L126.57 299.71L126.66 299.56L126.76 299.41L126.85 299.26L126.95 299.12L127.06 298.97L127.17 298.83L127.27 298.69L127.39 298.56L127.5 298.42L127.62 298.29L127.74 298.16L127.86 298.03L127.99 297.91L128.11 297.78L128.24 297.66L128.37 297.55L128.51 297.43L128.65 297.32L128.78 297.21L128.93 297.1L129.07 297L129.21 296.89L129.36 296.8L129.51 296.7L129.66 296.61L129.82 296.52L129.97 296.43L130.13 296.34L130.29 296.26L130.45 296.18L130.62 296.11L154.47 285.36L154.28 284.43L154.09 283.5L153.91 282.56L153.73 281.62L153.57 280.69L153.42 279.75L153.27 278.81L153.13 277.87L153.01 276.92L152.89 275.98L152.78 275.04L152.67 274.09L152.58 273.14L152.49 272.2L152.42 271.25L152.35 270.3L152.29 269.35L152.24 268.41L152.2 267.46L152.16 266.51L152.14 265.56L152.12 264.61L152.12 263.66L152.12 262.71L152.13 261.76L152.15 260.81L152.17 259.86L152.21 258.91L152.25 257.96L152.31 257.01L152.37 256.06L152.44 255.11L152.52 254.17L152.61 253.22L152.7 252.27L152.81 251.33L152.92 250.38L153.05 249.44L153.18 248.5L153.32 247.55L128.85 238.28L128.5 238.14L128.17 237.99L127.84 237.83L127.52 237.65L127.21 237.46L126.91 237.27L126.62 237.06L126.34 236.84L126.07 236.61L125.81 236.37L125.56 236.12L125.32 235.86L125.09 235.6L124.87 235.32L124.66 235.04L124.47 234.75L124.28 234.46L124.11 234.16L123.95 233.85L123.8 233.53L123.67 233.21L123.54 232.89L123.43 232.56L123.33 232.23L123.24 231.89L123.17 231.55L123.11 231.2L123.06 230.86L123.03 230.51L123.01 230.15L123 229.8L123.01 229.45L123.03 229.09L123.07 228.73L123.12 228.38L123.18 228.02L123.26 227.67L123.36 227.31L123.47 226.96L123.59 226.61L132.58 202.87L132.65 202.7L132.72 202.54L132.79 202.37L132.86 202.21L132.94 202.05L133.02 201.89L133.11 201.73L133.19 201.58L133.28 201.42L133.38 201.27L133.47 201.12L133.57 200.98L133.67 200.83L133.78 200.69L133.88 200.55L133.99 200.41L134.1 200.27L134.22 200.14L134.34 200L134.46 199.87L134.58 199.75L134.7 199.62L134.83 199.5L134.96 199.38L135.09 199.26L135.23 199.14L135.36 199.03L135.5 198.92L135.64 198.81L135.79 198.71L135.93 198.61L136.08 198.51L136.23 198.41L136.38 198.32L136.53 198.23L136.69 198.14L136.85 198.06L137.01 197.98L137.17 197.9L137.33 197.82L137.5 197.75L137.66 197.68L137.83 197.61L138 197.55L138.17 197.49L138.34 197.44L138.51 197.39L138.68 197.34L138.85 197.29L139.02 197.25L139.2 197.21L139.37 197.18L139.55 197.15L139.72 197.12L139.9 197.1L140.07 197.08L140.25 197.06L140.42 197.04L140.6 197.03L140.78 197.03L140.95 197.02L141.13 197.02L141.31 197.03L141.48 197.03L141.66 197.04L141.84 197.06L142.01 197.07L142.19 197.09L142.37 197.12L142.54 197.15L142.72 197.18L142.89 197.21L143.06 197.25L143.24 197.29L143.41 197.33L143.58 197.38L143.75 197.43L143.92 197.49L144.09 197.55L144.26 197.61L168.73 206.88L169.25 206.08L169.77 205.29L170.31 204.5L170.85 203.72L171.4 202.94L171.95 202.17L172.51 201.4L173.08 200.64L173.66 199.88L174.24 199.13L174.83 198.38L175.42 197.64L176.03 196.91L176.63 196.18L177.25 195.45L177.87 194.74L178.5 194.02L179.14 193.32L179.78 192.62L180.42 191.92L181.08 191.23L181.74 190.55L182.41 189.87L183.08 189.2L183.76 188.54L184.44 187.88L185.13 187.22L185.83 186.58L186.53 185.94L187.24 185.31L187.96 184.68L188.68 184.06L189.4 183.44L190.14 182.84L190.87 182.23L191.62 181.64L192.37 181.05L193.12 180.47L193.88 179.9L194.65 179.33L183.9 155.47L183.75 155.13L183.62 154.78L183.51 154.44L183.41 154.09L183.32 153.73L183.25 153.38L183.19 153.03L183.15 152.67L183.12 152.32L183.1 151.97L183.1 151.62L183.11 151.26L183.14 150.91L183.18 150.57L183.23 150.22L183.3 149.88L183.38 149.54L183.47 149.2L183.57 148.87L183.69 148.55L183.82 148.22L183.96 147.91L184.11 147.59L184.28 147.29L184.46 146.99L184.65 146.69L184.85 146.41L185.06 146.13L185.28 145.86L185.52 145.59L185.76 145.34L186.02 145.09L186.28 144.86L186.56 144.63L186.85 144.41L187.15 144.21L187.46 144.01L187.77 143.83L188.1 143.66L188.44 143.5L211.58 133.07L211.75 133L211.91 132.93L212.08 132.87L212.25 132.8L212.42 132.74L212.59 132.69L212.76 132.64L212.93 132.59L213.1 132.54L213.27 132.5L213.45 132.46L213.62 132.43L213.79 132.4L213.97 132.37L214.14 132.35L214.32 132.33L214.5 132.31L214.67 132.29L214.85 132.28L215.03 132.28L215.2 132.27L215.38 132.27L215.56 132.28L215.73 132.28L215.91 132.29L216.09 132.31L216.26 132.32L216.44 132.34L216.61 132.37L216.79 132.4L216.96 132.43L217.14 132.46L217.31 132.5L217.49 132.54L217.66 132.58L217.83 132.63L218 132.68L218.17 132.74L218.34 132.8L218.51 132.86L218.68 132.93L218.84 132.99L219.01 133.07L219.17 133.14L219.33 133.22L219.49 133.3L219.65 133.38L219.8 133.47L219.96 133.56L220.11 133.65L220.26 133.75L220.41 133.85L220.55 133.95L220.7 134.05L220.84 134.16L220.98 134.27L221.11 134.38L221.25 134.5L221.38 134.61L221.51 134.73L221.64 134.86L221.76 134.98L221.88 135.11L222 135.24L222.12 135.37L222.24 135.5L222.35 135.64L222.46 135.78L222.57 135.92L222.67 136.06L222.77 136.21L222.87 136.36L222.97 136.51L223.06 136.66L223.15 136.81L223.24 136.97L223.33 137.13L223.41 137.28L223.49 137.45L223.56 137.61L234.3 161.46L235.24 161.27L236.17 161.08L237.1 160.9L238.03 160.72L238.97 160.56L239.91 160.41L240.85 160.26L241.79 160.12L242.73 160L243.67 159.88L244.62 159.76L245.56 159.66L246.51 159.57L247.45 159.48L248.4 159.41L249.35 159.34L250.3 159.28L251.24 159.23L252.19 159.18L253.14 159.15L254.09 159.13L255.04 159.11L255.99 159.1L256.94 159.1L257.9 159.11L258.85 159.13L259.8 159.16L260.75 159.2L261.7 159.24L262.65 159.29L263.6 159.36L264.55 159.43L265.49 159.51L266.44 159.6L267.39 159.69L268.34 159.8L269.28 159.91L270.23 160.04L271.17 160.17L272.11 160.31L281.38 135.85L281.45 135.68L281.52 135.51L281.59 135.35L281.66 135.18L281.74 135.02L281.82 134.86L281.91 134.71L281.99 134.55L282.08 134.4L282.18 134.25L282.27 134.1L282.37 133.95L282.47 133.8L282.58 133.66L282.68 133.52L282.79 133.38L282.9 133.24L283.02 133.11L283.14 132.98L283.26 132.85L283.38 132.72L283.5 132.59L283.63 132.47L283.76 132.35L283.89 132.23L284.03 132.12L284.16 132.01L284.3 131.9L284.44 131.79L284.59 131.68L284.73 131.58L284.88 131.48L285.03 131.39L285.18 131.29L285.34 131.2L285.49 131.12L285.65 131.03L285.81 130.95L285.97 130.87L286.13 130.79L286.3 130.72L286.46 130.65L286.63 130.59L286.8 130.53L286.97 130.47L287.14 130.41L287.31 130.36L287.48 130.31L287.65 130.27L287.83 130.23L288 130.19L288.17 130.15L288.35 130.12L288.52 130.09L288.7 130.07L288.87 130.05L289.05 130.03L289.23 130.02L289.4 130.01L289.58 130L289.75 130L289.93 130L290.11 130L290.28 130.01ZM252.56 202.02L250.69 202.16L248.82 202.37L246.97 202.63L245.13 202.95L243.3 203.32L241.5 203.75L239.71 204.23L237.94 204.76L236.19 205.35L234.45 205.98L232.75 206.67L231.06 207.41L229.4 208.19L227.76 209.03L226.15 209.91L224.57 210.84L223.01 211.82L221.49 212.84L219.99 213.9L218.53 215.01L217.1 216.16L215.71 217.36L214.35 218.59L213.02 219.87L211.73 221.18L210.49 222.54L209.28 223.93L208.11 225.36L206.98 226.83L205.9 228.33L204.86 229.87L203.87 231.45L202.92 233.05L202.02 234.69L201.16 236.37L200.36 238.07L199.61 239.81L198.91 241.57L198.48 242.72L198.08 243.88L197.71 245.04L197.35 246.21L197.03 247.38L196.72 248.55L196.44 249.73L196.18 250.91L195.94 252.09L195.73 253.28L195.55 254.47L195.38 255.66L195.24 256.85L195.13 258.04L195.03 259.23L194.96 260.43L194.92 261.62L194.89 262.82L194.9 264.01L194.92 265.21L194.97 266.4L195.04 267.59L195.14 268.78L195.25 269.97L195.4 271.16L195.56 272.34L195.75 273.53L195.96 274.71L196.2 275.88L196.46 277.06L196.74 278.23L197.05 279.4L197.38 280.56L197.73 281.72L198.11 282.87L198.51 284.02L198.93 285.16L199.38 286.3L199.85 287.43L200.34 288.55L200.86 289.67L201.39 290.77L201.95 291.86L202.52 292.93L203.12 293.99L203.73 295.04L204.37 296.07L205.02 297.09L205.69 298.09L206.38 299.08L207.08 300.05L207.81 301.01L208.55 301.95L209.31 302.87L210.09 303.78L210.89 304.68L211.7 305.55L212.53 306.41L213.37 307.26L214.23 308.08L215.11 308.89L216.01 309.69L216.92 310.46L217.84 311.22L218.78 311.96L219.74 312.68L220.71 313.38L221.69 314.07L222.69 314.73L223.71 315.38L224.73 316L225.77 316.61L226.83 317.2L227.9 317.77L228.98 318.32L230.07 318.85L231.18 319.36L232.3 319.84L233.43 320.31L234.58 320.76L235.1 320.95L235.63 321.15L236.16 321.33L236.69 321.52L237.22 321.69L237.75 321.86L238.29 322.03L238.82 322.19L239.35 322.35L239.89 322.5L240.43 322.65L240.97 322.79L241.5 322.93L242.04 323.06L242.58 323.19L243.13 323.31L243.67 323.43L244.21 323.54L244.75 323.65L245.3 323.76L245.84 323.85L246.39 323.95L246.94 324.03L247.48 324.12L248.03 324.19L248.58 324.27L249.13 324.34L249.68 324.4L250.23 324.46L250.78 324.51L251.33 324.56L251.89 324.6L252.44 324.64L252.99 324.67L253.55 324.7L254.1 324.72L254.66 324.74L255.21 324.75L255.77 324.76L256.33 324.76L258.22 324.73L260.11 324.64L261.99 324.5L263.85 324.29L265.71 324.03L267.55 323.71L269.37 323.34L271.18 322.91L272.97 322.43L274.74 321.9L276.49 321.31L278.22 320.68L279.93 319.99L281.61 319.25L283.28 318.47L284.91 317.63L286.52 316.75L288.11 315.82L289.66 314.84L291.19 313.82L292.68 312.76L294.14 311.65L295.57 310.5L296.97 309.3L298.33 308.07L299.65 306.79L300.94 305.48L302.19 304.12L303.4 302.73L304.56 301.3L305.69 299.83L306.77 298.33L307.81 296.79L308.81 295.21L309.76 293.61L310.66 291.97L311.51 290.29L312.31 288.59L313.07 286.85L313.77 285.09L314.19 283.94L314.59 282.78L314.97 281.62L315.32 280.45L315.65 279.28L315.96 278.1L316.24 276.93L316.5 275.75L316.73 274.56L316.94 273.38L317.13 272.19L317.29 271L317.43 269.81L317.55 268.62L317.64 267.43L317.71 266.23L317.76 265.04L317.78 263.84L317.78 262.65L317.76 261.45L317.71 260.26L317.64 259.07L317.54 257.88L317.42 256.69L317.28 255.5L317.11 254.31L316.92 253.13L316.71 251.95L316.48 250.77L316.22 249.6L315.93 248.43L315.63 247.26L315.3 246.1L314.94 244.94L314.57 243.79L314.17 242.64L313.74 241.5L313.3 240.36L312.82 239.23L312.33 238.11L311.82 236.99L311.28 235.89L310.72 234.8L310.15 233.73L309.55 232.67L308.94 231.62L308.31 230.59L307.66 229.57L306.99 228.57L306.3 227.58L305.59 226.61L304.86 225.65L304.12 224.71L303.36 223.79L302.58 222.88L301.79 221.98L300.98 221.11L300.15 220.25L299.3 219.4L298.44 218.57L297.56 217.77L296.67 216.97L295.76 216.2L294.83 215.44L293.89 214.7L292.94 213.98L291.97 213.28L290.98 212.59L289.98 211.93L288.97 211.28L287.94 210.65L286.9 210.05L285.84 209.46L284.78 208.89L283.69 208.34L282.6 207.81L281.49 207.3L280.37 206.82L279.24 206.35L278.1 205.9L277.57 205.71L277.04 205.51L276.51 205.33L275.98 205.14L275.45 204.97L274.92 204.8L274.39 204.63L273.85 204.47L273.32 204.31L272.78 204.16L272.25 204.01L271.71 203.87L271.17 203.73L270.63 203.6L270.09 203.47L269.55 203.35L269.01 203.23L268.46 203.11L267.92 203.01L267.38 202.9L266.83 202.81L266.28 202.71L265.74 202.63L265.19 202.54L264.64 202.46L264.09 202.39L263.54 202.32L262.99 202.26L262.44 202.2L261.89 202.15L261.34 202.1L260.79 202.06L260.23 202.02L259.68 201.99L259.13 201.96L258.57 201.94L258.02 201.92L257.46 201.91L256.91 201.9L256.35 201.9L254.45 201.93L252.56 202.02Z" id="a1mG60R5r3"></path><path d="M419.17 303.74L419.45 303.77L419.73 303.81L420 303.85L420.27 303.91L420.53 303.98L420.79 304.06L421.05 304.15L421.3 304.25L421.55 304.35L421.79 304.47L422.02 304.6L422.26 304.73L422.48 304.87L422.7 305.02L422.91 305.18L423.12 305.35L423.32 305.53L423.51 305.71L423.69 305.9L423.87 306.09L424.04 306.3L424.2 306.51L424.36 306.72L424.5 306.94L424.64 307.17L424.77 307.41L424.88 307.65L424.99 307.89L425.09 308.14L425.18 308.4L425.26 308.66L425.33 308.92L425.39 309.19L425.44 309.46L425.48 309.74L425.51 310.02L425.52 310.3L426.18 330.2L426.91 330.32L427.63 330.45L428.35 330.59L429.06 330.73L429.78 330.88L430.49 331.03L431.21 331.19L431.92 331.36L432.63 331.53L433.33 331.71L434.04 331.9L434.74 332.09L435.44 332.29L436.14 332.49L436.84 332.71L437.54 332.92L438.23 333.15L438.92 333.38L439.61 333.61L440.3 333.86L440.98 334.11L441.66 334.36L442.34 334.62L443.02 334.89L443.69 335.16L444.37 335.44L445.03 335.73L445.7 336.02L446.37 336.32L447.03 336.62L447.68 336.93L448.34 337.25L448.99 337.57L449.64 337.9L450.29 338.23L450.93 338.57L451.57 338.92L452.21 339.27L452.84 339.63L453.47 339.99L467.26 325.28L467.46 325.07L467.67 324.88L467.88 324.69L468.1 324.51L468.33 324.35L468.55 324.19L468.79 324.04L469.03 323.91L469.27 323.78L469.52 323.66L469.77 323.56L470.02 323.46L470.28 323.37L470.54 323.29L470.8 323.23L471.06 323.17L471.33 323.12L471.59 323.08L471.86 323.06L472.13 323.04L472.39 323.03L472.66 323.04L472.93 323.05L473.2 323.07L473.46 323.1L473.73 323.15L473.99 323.2L474.25 323.27L474.51 323.34L474.77 323.42L475.02 323.52L475.27 323.62L475.52 323.74L475.77 323.86L476 324L476.24 324.15L476.47 324.3L476.69 324.47L476.91 324.65L477.13 324.83L491.41 337.86L491.51 337.95L491.61 338.04L491.71 338.14L491.8 338.24L491.89 338.34L491.98 338.44L492.07 338.55L492.15 338.65L492.24 338.76L492.32 338.87L492.4 338.98L492.47 339.09L492.55 339.2L492.62 339.31L492.69 339.43L492.75 339.54L492.82 339.66L492.88 339.78L492.94 339.9L493 340.02L493.05 340.15L493.11 340.27L493.16 340.39L493.2 340.52L493.25 340.64L493.29 340.77L493.33 340.9L493.37 341.03L493.4 341.16L493.44 341.29L493.47 341.42L493.49 341.55L493.52 341.69L493.54 341.82L493.56 341.96L493.58 342.09L493.59 342.23L493.6 342.36L493.61 342.5L493.62 342.63L493.62 342.77L493.62 342.91L493.62 343.05L493.61 343.18L493.61 343.32L493.6 343.45L493.58 343.59L493.57 343.72L493.55 343.86L493.53 343.99L493.5 344.12L493.48 344.26L493.45 344.39L493.42 344.52L493.38 344.65L493.35 344.78L493.31 344.91L493.27 345.04L493.22 345.17L493.17 345.3L493.12 345.42L493.07 345.55L493.02 345.67L492.96 345.79L492.9 345.92L492.84 346.04L492.78 346.16L492.71 346.28L492.64 346.39L492.57 346.51L492.5 346.63L492.42 346.74L492.35 346.85L492.27 346.96L492.18 347.07L492.1 347.18L492.01 347.29L491.92 347.39L491.83 347.5L491.74 347.6L477.95 362.31L478.37 362.9L478.78 363.5L479.18 364.1L479.58 364.7L479.98 365.31L480.37 365.92L480.75 366.53L481.13 367.15L481.5 367.77L481.86 368.39L482.22 369.02L482.57 369.65L482.92 370.28L483.26 370.91L483.6 371.55L483.93 372.2L484.25 372.84L484.57 373.49L484.88 374.14L485.19 374.79L485.48 375.45L485.78 376.11L486.06 376.77L486.35 377.43L486.62 378.1L486.89 378.77L487.15 379.44L487.41 380.12L487.66 380.79L487.9 381.47L488.14 382.15L488.37 382.84L488.59 383.52L488.81 384.21L489.02 384.9L489.23 385.59L489.43 386.29L489.62 386.99L489.81 387.69L489.99 388.39L510.15 387.48L510.28 387.47L510.42 387.47L510.56 387.47L510.7 387.47L510.84 387.48L510.97 387.49L511.11 387.5L511.25 387.51L511.38 387.53L511.52 387.55L511.65 387.57L511.79 387.59L511.92 387.62L512.05 387.65L512.19 387.68L512.32 387.72L512.45 387.75L512.58 387.79L512.71 387.83L512.83 387.88L512.96 387.93L513.09 387.97L513.21 388.03L513.34 388.08L513.46 388.14L513.58 388.2L513.7 388.26L513.82 388.32L513.94 388.39L514.06 388.46L514.17 388.53L514.29 388.6L514.4 388.68L514.51 388.75L514.62 388.83L514.73 388.92L514.84 389L514.94 389.09L515.05 389.18L515.15 389.27L515.25 389.36L515.35 389.46L515.44 389.55L515.54 389.65L515.63 389.75L515.72 389.86L515.81 389.96L515.89 390.06L515.97 390.17L516.05 390.28L516.13 390.39L516.21 390.5L516.28 390.61L516.36 390.73L516.42 390.84L516.49 390.96L516.56 391.07L516.62 391.19L516.68 391.31L516.74 391.44L516.79 391.56L516.84 391.68L516.89 391.81L516.94 391.93L516.99 392.06L517.03 392.18L517.07 392.31L517.11 392.44L517.14 392.57L517.17 392.7L517.2 392.83L517.23 392.97L517.26 393.1L517.28 393.23L517.3 393.37L517.31 393.5L517.33 393.64L517.34 393.77L517.35 393.91L517.35 394.05L518 413.35L518 413.63L517.99 413.92L517.97 414.2L517.94 414.47L517.9 414.75L517.85 415.01L517.79 415.28L517.71 415.54L517.63 415.8L517.54 416.06L517.44 416.31L517.32 416.55L517.2 416.79L517.07 417.03L516.93 417.26L516.79 417.48L516.63 417.7L516.47 417.91L516.3 418.11L516.12 418.31L515.93 418.51L515.74 418.69L515.53 418.87L515.33 419.04L515.11 419.2L514.89 419.36L514.66 419.5L514.43 419.64L514.19 419.77L513.95 419.89L513.7 420L513.44 420.1L513.18 420.2L512.92 420.28L512.65 420.35L512.38 420.41L512.1 420.46L511.82 420.51L511.54 420.54L511.25 420.55L491.09 421.46L490.96 422.18L490.82 422.89L490.67 423.6L490.52 424.32L490.36 425.02L490.19 425.73L490.02 426.44L489.84 427.14L489.66 427.84L489.47 428.55L489.27 429.24L489.07 429.94L488.86 430.64L488.64 431.33L488.42 432.02L488.19 432.71L487.95 433.4L487.71 434.09L487.46 434.77L487.21 435.45L486.94 436.13L486.68 436.81L486.4 437.48L486.12 438.15L485.84 438.82L485.55 439.49L485.25 440.15L484.94 440.82L484.63 441.48L484.32 442.13L483.99 442.79L483.67 443.44L483.33 444.09L482.99 444.73L482.64 445.38L482.29 446.02L481.93 446.65L481.57 447.29L481.2 447.92L480.82 448.55L495.54 461.97L495.75 462.17L495.95 462.37L496.13 462.58L496.31 462.79L496.47 463.01L496.63 463.24L496.78 463.47L496.91 463.7L497.04 463.94L497.15 464.18L497.26 464.43L497.35 464.68L497.44 464.93L497.51 465.18L497.58 465.44L497.63 465.7L497.68 465.96L497.71 466.22L497.74 466.49L497.75 466.75L497.75 467.01L497.75 467.28L497.73 467.54L497.7 467.81L497.66 468.07L497.62 468.33L497.56 468.59L497.49 468.85L497.41 469.11L497.32 469.37L497.22 469.62L497.12 469.87L497 470.11L496.87 470.35L496.72 470.59L496.57 470.83L496.41 471.06L496.24 471.28L496.06 471.5L495.87 471.71L482.49 485.99L482.4 486.09L482.3 486.19L482.2 486.28L482.1 486.38L482 486.47L481.89 486.56L481.79 486.65L481.68 486.73L481.57 486.81L481.46 486.9L481.35 486.97L481.23 487.05L481.12 487.13L481 487.2L480.88 487.27L480.77 487.34L480.65 487.4L480.52 487.46L480.4 487.52L480.28 487.58L480.15 487.64L480.03 487.69L479.9 487.74L479.77 487.79L479.64 487.84L479.52 487.88L479.38 487.92L479.25 487.96L479.12 488L478.99 488.03L478.85 488.06L478.72 488.09L478.59 488.12L478.45 488.14L478.31 488.16L478.18 488.18L478.04 488.2L477.9 488.21L477.76 488.22L477.62 488.23L477.49 488.23L477.35 488.23L477.21 488.23L477.07 488.23L476.93 488.22L476.8 488.22L476.66 488.21L476.52 488.19L476.39 488.17L476.25 488.16L476.12 488.13L475.98 488.11L475.85 488.08L475.72 488.05L475.58 488.02L475.45 487.99L475.32 487.95L475.19 487.91L475.06 487.87L474.94 487.82L474.81 487.78L474.68 487.73L474.56 487.68L474.43 487.62L474.31 487.56L474.19 487.51L474.07 487.44L473.95 487.38L473.83 487.31L473.71 487.25L473.6 487.17L473.48 487.1L473.37 487.03L473.26 486.95L473.15 486.87L473.04 486.79L472.93 486.7L472.83 486.61L472.72 486.52L472.62 486.43L457.9 473.01L457.3 473.43L456.69 473.84L456.08 474.25L455.47 474.65L454.85 475.05L454.23 475.44L453.6 475.82L452.98 476.2L452.34 476.58L451.71 476.95L451.07 477.31L450.43 477.67L449.78 478.02L449.14 478.36L448.48 478.7L447.83 479.04L447.17 479.36L446.51 479.69L445.85 480L445.18 480.31L444.52 480.62L443.84 480.92L443.17 481.21L442.49 481.49L441.81 481.77L441.13 482.05L440.45 482.32L439.76 482.58L439.07 482.83L438.38 483.08L437.68 483.33L436.99 483.56L436.29 483.79L435.59 484.02L434.89 484.24L434.18 484.45L433.47 484.65L432.77 484.85L432.05 485.05L431.34 485.23L432 505.13L432.01 505.27L432.01 505.4L432.01 505.54L432 505.68L431.99 505.81L431.98 505.95L431.97 506.08L431.95 506.22L431.93 506.35L431.91 506.49L431.89 506.62L431.86 506.75L431.83 506.89L431.8 507.02L431.77 507.15L431.73 507.28L431.69 507.41L431.65 507.54L431.61 507.66L431.56 507.79L431.51 507.92L431.46 508.04L431.41 508.17L431.35 508.29L431.29 508.41L431.23 508.53L431.16 508.65L431.1 508.77L431.03 508.89L430.96 509.01L430.89 509.12L430.81 509.23L430.73 509.35L430.65 509.46L430.57 509.57L430.48 509.68L430.4 509.78L430.31 509.89L430.22 509.99L430.12 510.09L430.07 510.15L430.02 510.2L429.97 510.26L429.91 510.31L429.86 510.36L429.81 510.41L429.75 510.46L429.7 510.51L429.64 510.56L429.59 510.61L429.53 510.66L429.47 510.71L429.41 510.75L429.36 510.8L429.3 510.85L429.24 510.89L429.18 510.93L429.12 510.98L429.06 511.02L429 511.06L428.94 511.11L428.88 511.15L428.82 511.19L428.75 511.23L428.69 511.27L428.63 511.31L428.57 511.34L428.5 511.38L428.44 511.42L428.37 511.45L428.31 511.49L428.24 511.52L428.18 511.56L428.11 511.59L428.05 511.62L427.98 511.66L427.91 511.69L427.85 511.72L427.78 511.75L427.71 511.78L427.65 511.8L427.6 511.82L427.54 511.85L427.48 511.87L427.42 511.89L427.36 511.91L427.3 511.94L427.24 511.96L427.18 511.98L427.12 512L427.06 512.01L427 512.03L426.94 512.05L426.88 512.07L426.82 512.09L426.76 512.1L426.7 512.12L426.64 512.13L426.58 512.15L426.51 512.16L426.45 512.18L426.39 512.19L426.33 512.2L426.27 512.22L426.2 512.23L426.14 512.24L426.08 512.25L426.02 512.26L425.95 512.27L425.89 512.28L425.83 512.29L425.76 512.29L425.7 512.3L425.64 512.31L425.57 512.31L425.51 512.32L425.45 512.32L425.38 512.33L425.32 512.33L425.26 512.33L405.7 513.22L405.41 513.23L405.13 513.22L404.84 513.21L404.56 513.18L404.29 513.14L404.02 513.09L403.75 513.04L403.48 512.97L403.22 512.89L402.97 512.8L402.71 512.7L402.47 512.6L402.23 512.48L401.99 512.35L401.76 512.22L401.53 512.08L401.32 511.93L401.1 511.77L400.9 511.6L400.7 511.42L400.51 511.24L400.32 511.05L400.14 510.86L399.97 510.65L399.81 510.44L399.66 510.23L399.51 510L399.38 509.78L399.25 509.54L399.13 509.3L399.02 509.06L398.92 508.81L398.83 508.55L398.75 508.29L398.68 508.03L398.62 507.76L398.57 507.49L398.53 507.21L398.51 506.93L398.49 506.65L397.83 486.75L397.11 486.63L396.39 486.5L395.67 486.36L394.95 486.22L394.24 486.07L393.52 485.92L392.81 485.76L392.1 485.59L391.39 485.42L390.68 485.24L389.98 485.05L389.27 484.86L388.57 484.66L387.87 484.46L387.17 484.24L386.48 484.03L385.78 483.8L385.09 483.57L384.4 483.34L383.72 483.09L383.03 482.84L382.35 482.59L381.67 482.33L381 482.06L380.32 481.79L379.65 481.51L378.98 481.22L378.31 480.93L377.65 480.63L376.99 480.33L376.33 480.02L375.67 479.7L375.02 479.38L374.37 479.05L373.73 478.72L373.08 478.38L372.44 478.03L371.8 477.68L371.17 477.32L370.54 476.96L356.75 491.67L356.66 491.77L356.56 491.87L356.46 491.97L356.36 492.06L356.26 492.15L356.15 492.24L356.05 492.33L355.94 492.42L355.83 492.5L355.72 492.58L355.61 492.66L355.49 492.74L355.38 492.81L355.26 492.88L355.15 492.95L355.03 493.02L354.91 493.08L354.79 493.15L354.66 493.21L354.54 493.27L354.42 493.32L354.29 493.38L354.16 493.43L354.04 493.48L353.91 493.52L353.78 493.57L353.65 493.61L353.52 493.65L353.38 493.68L353.25 493.72L353.12 493.75L352.98 493.78L352.85 493.8L352.71 493.83L352.58 493.85L352.44 493.86L352.3 493.88L352.16 493.89L352.03 493.9L351.89 493.91L351.75 493.92L351.61 493.92L351.47 493.92L351.33 493.91L351.2 493.91L351.06 493.9L350.92 493.89L350.79 493.88L350.65 493.86L350.51 493.84L350.38 493.82L350.25 493.79L350.11 493.77L349.98 493.74L349.85 493.71L349.72 493.67L349.59 493.63L349.46 493.59L349.33 493.55L349.2 493.51L349.07 493.46L348.95 493.41L348.82 493.36L348.7 493.31L348.57 493.25L348.45 493.19L348.33 493.13L348.21 493.06L348.09 493L347.98 492.93L347.86 492.86L347.75 492.78L347.63 492.71L347.52 492.63L347.41 492.55L347.3 492.47L347.2 492.38L347.09 492.3L346.99 492.21L346.89 492.12L332.6 479.09L332.5 479L332.4 478.9L332.31 478.81L332.21 478.71L332.12 478.61L332.03 478.51L331.95 478.4L331.86 478.3L331.78 478.19L331.7 478.08L331.62 477.97L331.54 477.86L331.47 477.75L331.4 477.64L331.33 477.52L331.26 477.41L331.2 477.29L331.13 477.17L331.07 477.05L331.02 476.93L330.96 476.8L330.91 476.68L330.86 476.56L330.81 476.43L330.77 476.3L330.72 476.18L330.68 476.05L330.64 475.92L330.61 475.79L330.58 475.66L330.55 475.53L330.52 475.4L330.5 475.26L330.47 475.13L330.45 474.99L330.44 474.86L330.42 474.72L330.41 474.59L330.4 474.45L330.4 474.31L330.39 474.18L330.39 474.04L330.4 473.9L330.4 473.77L330.41 473.63L330.42 473.5L330.43 473.36L330.45 473.23L330.47 473.09L330.49 472.96L330.51 472.82L330.54 472.69L330.57 472.56L330.6 472.43L330.63 472.3L330.67 472.17L330.71 472.04L330.75 471.91L330.79 471.78L330.84 471.65L330.89 471.53L330.94 471.4L331 471.28L331.05 471.16L331.11 471.03L331.17 470.91L331.24 470.79L331.3 470.67L331.37 470.56L331.44 470.44L331.52 470.32L331.59 470.21L331.67 470.1L331.75 469.99L331.83 469.88L331.92 469.77L332 469.66L332.09 469.56L332.18 469.45L332.28 469.35L346.07 454.64L345.65 454.04L345.24 453.45L344.83 452.85L344.43 452.25L344.04 451.64L343.65 451.03L343.27 450.42L342.89 449.8L342.52 449.18L342.15 448.56L341.79 447.93L341.44 447.3L341.09 446.67L340.75 446.03L340.42 445.4L340.09 444.75L339.76 444.11L339.45 443.46L339.14 442.81L338.83 442.16L338.53 441.5L338.24 440.84L337.95 440.18L337.67 439.52L337.4 438.85L337.13 438.18L336.86 437.51L336.61 436.83L336.36 436.16L336.11 435.48L335.88 434.8L335.65 434.11L335.42 433.43L335.2 432.74L334.99 432.05L334.79 431.35L334.59 430.66L334.4 429.96L334.21 429.26L334.03 428.56L313.87 429.47L313.58 429.48L313.3 429.48L313.01 429.46L312.74 429.44L312.46 429.4L312.19 429.35L311.92 429.29L311.65 429.22L311.39 429.14L311.14 429.06L310.88 428.96L310.64 428.85L310.4 428.73L310.16 428.61L309.93 428.47L309.7 428.33L309.49 428.18L309.27 428.02L309.07 427.85L308.87 427.68L308.68 427.5L308.49 427.31L308.31 427.11L308.14 426.91L307.98 426.7L307.83 426.48L307.68 426.26L307.55 426.03L307.42 425.8L307.3 425.56L307.19 425.31L307.09 425.06L307 424.81L306.92 424.55L306.85 424.28L306.79 424.01L306.74 423.74L306.7 423.47L306.68 423.18L306.66 422.9L306.02 403.6L306.02 403.46L306.02 403.33L306.02 403.19L306.02 403.05L306.03 402.92L306.04 402.78L306.06 402.65L306.07 402.51L306.09 402.38L306.11 402.24L306.13 402.11L306.16 401.98L306.19 401.84L306.22 401.71L306.25 401.58L306.29 401.45L306.33 401.32L306.37 401.19L306.42 401.07L306.46 400.94L306.51 400.81L306.56 400.69L306.62 400.56L306.67 400.44L306.73 400.32L306.8 400.2L306.86 400.08L306.93 399.96L306.99 399.84L307.07 399.72L307.14 399.61L307.21 399.5L307.29 399.38L307.37 399.27L307.45 399.16L307.54 399.05L307.63 398.95L307.72 398.84L307.81 398.74L307.9 398.64L308 398.54L308.1 398.44L308.19 398.34L308.3 398.25L308.4 398.15L308.5 398.06L308.61 397.98L308.72 397.89L308.83 397.81L308.94 397.73L309.05 397.65L309.16 397.57L309.28 397.5L309.39 397.42L309.51 397.35L309.63 397.29L309.75 397.22L309.87 397.16L309.99 397.1L310.12 397.04L310.24 396.98L310.37 396.93L310.49 396.88L310.62 396.83L310.75 396.78L310.88 396.74L311.01 396.7L311.14 396.66L311.27 396.62L311.41 396.59L311.54 396.56L311.67 396.53L311.81 396.5L311.94 396.48L312.08 396.46L312.22 396.44L312.35 396.43L312.49 396.41L312.63 396.4L312.77 396.39L332.93 395.48L333.06 394.77L333.2 394.06L333.35 393.34L333.5 392.63L333.66 391.92L333.82 391.22L333.99 390.51L334.17 389.81L334.36 389.1L334.55 388.4L334.75 387.7L334.95 387.01L335.16 386.31L335.38 385.62L335.6 384.93L335.83 384.24L336.07 383.55L336.31 382.86L336.56 382.18L336.81 381.5L337.07 380.82L337.34 380.14L337.61 379.47L337.89 378.8L338.18 378.13L338.47 377.46L338.77 376.79L339.07 376.13L339.38 375.47L339.7 374.82L340.02 374.16L340.35 373.51L340.69 372.86L341.03 372.22L341.37 371.57L341.73 370.93L342.08 370.3L342.45 369.66L342.82 369.03L343.2 368.4L328.47 354.98L328.27 354.78L328.07 354.58L327.88 354.37L327.71 354.16L327.54 353.94L327.39 353.71L327.24 353.48L327.11 353.25L326.98 353.01L326.86 352.77L326.76 352.52L326.66 352.27L326.58 352.02L326.5 351.77L326.44 351.51L326.38 351.25L326.34 350.99L326.31 350.73L326.28 350.46L326.27 350.2L326.26 349.93L326.27 349.67L326.29 349.41L326.31 349.14L326.35 348.88L326.4 348.62L326.46 348.35L326.52 348.1L326.6 347.84L326.69 347.58L326.79 347.33L326.9 347.08L327.02 346.84L327.15 346.6L327.29 346.36L327.44 346.12L327.6 345.89L327.77 345.67L327.96 345.45L328.15 345.24L341.52 330.96L341.62 330.86L341.72 330.76L341.82 330.67L341.92 330.57L342.02 330.48L342.12 330.39L342.23 330.3L342.34 330.22L342.45 330.13L342.56 330.05L342.67 329.97L342.78 329.9L342.9 329.82L343.01 329.75L343.13 329.68L343.25 329.61L343.37 329.55L343.49 329.48L343.61 329.42L343.74 329.37L343.86 329.31L343.99 329.26L344.12 329.21L344.24 329.16L344.37 329.11L344.5 329.07L344.63 329.03L344.76 328.99L344.89 328.95L345.03 328.92L345.16 328.88L345.3 328.86L345.43 328.83L345.57 328.81L345.7 328.79L345.84 328.77L345.98 328.75L346.11 328.74L346.25 328.73L346.39 328.72L346.53 328.72L346.67 328.71L346.81 328.71L346.94 328.72L347.08 328.72L347.22 328.73L347.36 328.74L347.49 328.76L347.63 328.77L347.76 328.79L347.9 328.81L348.03 328.84L348.17 328.86L348.3 328.89L348.43 328.93L348.56 328.96L348.69 329L348.82 329.04L348.95 329.08L349.08 329.12L349.21 329.17L349.33 329.22L349.46 329.27L349.58 329.33L349.7 329.38L349.83 329.44L349.95 329.5L350.07 329.57L350.18 329.63L350.3 329.7L350.42 329.77L350.53 329.85L350.64 329.92L350.76 330L350.87 330.08L350.97 330.16L351.08 330.25L351.19 330.33L351.29 330.42L351.39 330.51L366.11 343.94L366.72 343.52L367.32 343.11L367.93 342.7L368.55 342.3L369.17 341.9L369.79 341.51L370.41 341.12L371.04 340.74L371.67 340.37L372.31 340L372.95 339.64L373.59 339.28L374.23 338.93L374.88 338.58L375.53 338.24L376.19 337.91L376.84 337.58L377.5 337.26L378.17 336.94L378.83 336.63L379.5 336.33L380.17 336.03L380.85 335.74L381.52 335.45L382.2 335.17L382.88 334.9L383.57 334.63L384.26 334.37L384.94 334.11L385.64 333.86L386.33 333.62L387.03 333.38L387.73 333.15L388.43 332.93L389.13 332.71L389.83 332.5L390.54 332.29L391.25 332.09L391.96 331.9L392.67 331.72L392.01 311.82L392.01 311.68L392.01 311.54L392.01 311.41L392.01 311.27L392.02 311.14L392.03 311L392.05 310.86L392.06 310.73L392.08 310.6L392.1 310.46L392.13 310.33L392.15 310.2L392.18 310.06L392.21 309.93L392.25 309.8L392.28 309.67L392.32 309.54L392.36 309.41L392.41 309.28L392.45 309.16L392.5 309.03L392.56 308.91L392.61 308.78L392.67 308.66L392.72 308.54L392.79 308.42L392.85 308.3L392.92 308.18L392.99 308.06L393.06 307.94L393.13 307.83L393.2 307.71L393.28 307.6L393.36 307.49L393.45 307.38L393.53 307.27L393.62 307.17L393.71 307.06L393.8 306.96L393.89 306.85L393.99 306.75L394.09 306.66L394.19 306.56L394.29 306.47L394.39 306.37L394.49 306.28L394.6 306.2L394.71 306.11L394.82 306.03L394.93 305.95L395.04 305.87L395.15 305.79L395.27 305.72L395.38 305.64L395.5 305.57L395.62 305.51L395.74 305.44L395.86 305.38L395.98 305.32L396.11 305.26L396.23 305.2L396.36 305.15L396.48 305.1L396.61 305.05L396.74 305L396.87 304.96L397 304.92L397.13 304.88L397.26 304.84L397.4 304.81L397.53 304.78L397.66 304.75L397.8 304.72L397.94 304.7L398.07 304.68L398.21 304.66L398.35 304.64L398.48 304.63L398.62 304.62L398.76 304.61L418.31 303.73L418.6 303.72L418.89 303.73L419.17 303.74ZM410.45 361.77L410.02 361.79L409.59 361.82L409.16 361.85L408.73 361.88L408.3 361.91L407.87 361.96L407.44 362L407.01 362.05L406.58 362.1L406.16 362.15L405.73 362.21L405.31 362.28L404.88 362.34L404.46 362.41L404.04 362.49L403.61 362.56L403.19 362.65L402.77 362.73L402.36 362.82L401.94 362.91L401.52 363.01L401.1 363.11L400.69 363.21L400.27 363.32L399.86 363.43L399.45 363.55L399.04 363.66L398.63 363.79L398.22 363.91L397.81 364.04L397.4 364.18L397 364.31L396.59 364.45L396.19 364.6L395.79 364.75L395.39 364.9L394.99 365.05L394.59 365.21L394.19 365.37L393.79 365.54L392.45 366.13L391.13 366.77L389.84 367.44L388.57 368.14L387.33 368.88L386.12 369.66L384.93 370.47L383.77 371.32L382.64 372.19L381.54 373.1L380.47 374.04L379.43 375.01L378.41 376L377.43 377.03L376.48 378.08L375.57 379.16L374.68 380.26L373.83 381.39L373.02 382.54L372.23 383.71L371.49 384.91L370.77 386.12L370.1 387.36L369.46 388.62L368.86 389.89L368.29 391.18L367.77 392.49L367.28 393.81L366.84 395.15L366.43 396.51L366.06 397.87L365.74 399.25L365.46 400.64L365.22 402.04L365.02 403.45L364.86 404.87L364.75 406.29L364.69 407.73L364.67 409.17L364.69 410.61L364.73 411.55L364.79 412.48L364.87 413.4L364.96 414.32L365.08 415.24L365.21 416.15L365.35 417.06L365.52 417.97L365.71 418.86L365.91 419.75L366.13 420.64L366.36 421.52L366.62 422.4L366.89 423.27L367.17 424.13L367.48 424.98L367.8 425.83L368.14 426.67L368.49 427.51L368.87 428.33L369.25 429.15L369.66 429.97L370.08 430.77L370.52 431.56L370.97 432.35L371.44 433.13L371.93 433.9L372.43 434.66L372.94 435.41L373.48 436.15L374.03 436.89L374.59 437.61L375.17 438.32L375.76 439.02L376.37 439.71L377 440.4L377.64 441.07L378.29 441.73L378.96 442.37L379.65 443.01L380.35 443.64L381.05 444.24L381.77 444.84L382.5 445.41L383.24 445.98L383.99 446.52L384.74 447.05L385.51 447.56L386.28 448.06L387.07 448.54L387.86 449.01L388.66 449.46L389.46 449.89L390.28 450.31L391.1 450.71L391.93 451.1L392.77 451.46L393.62 451.81L394.47 452.15L395.33 452.47L396.19 452.77L397.06 453.05L397.94 453.32L398.82 453.57L399.71 453.8L400.61 454.02L401.5 454.21L402.41 454.39L403.32 454.56L404.23 454.7L405.15 454.83L406.07 454.94L406.99 455.03L407.92 455.11L408.85 455.17L409.79 455.2L410.73 455.23L411.67 455.23L412.62 455.21L413.56 455.18L413.99 455.16L414.43 455.13L414.86 455.1L415.29 455.07L415.72 455.03L416.15 454.99L416.58 454.95L417.01 454.9L417.43 454.85L417.86 454.8L418.29 454.74L418.71 454.67L419.13 454.61L419.56 454.54L419.98 454.46L420.4 454.38L420.82 454.3L421.24 454.22L421.66 454.13L422.08 454.04L422.5 453.94L422.91 453.84L423.33 453.74L423.74 453.63L424.15 453.52L424.57 453.4L424.98 453.28L425.39 453.16L425.8 453.04L426.2 452.91L426.61 452.77L427.02 452.64L427.42 452.5L427.83 452.35L428.23 452.2L428.63 452.05L429.03 451.9L429.43 451.74L429.83 451.58L430.22 451.41L431.56 450.82L432.88 450.18L434.17 449.51L435.44 448.81L436.68 448.06L437.9 447.29L439.08 446.48L440.24 445.63L441.37 444.76L442.47 443.85L443.55 442.91L444.59 441.94L445.6 440.95L446.58 439.92L447.53 438.87L448.45 437.79L449.33 436.69L450.18 435.56L451 434.41L451.78 433.24L452.53 432.04L453.24 430.82L453.92 429.59L454.56 428.33L455.16 427.06L455.72 425.77L456.25 424.46L456.73 423.13L457.18 421.8L457.59 420.44L457.95 419.08L458.28 417.7L458.56 416.31L458.8 414.91L459 413.5L459.15 412.08L459.26 410.65L459.33 409.22L459.35 407.78L459.32 406.34L459.28 405.4L459.22 404.47L459.15 403.55L459.05 402.62L458.94 401.71L458.81 400.79L458.66 399.89L458.5 398.98L458.31 398.09L458.11 397.19L457.89 396.31L457.65 395.43L457.4 394.55L457.13 393.68L456.84 392.82L456.54 391.97L456.22 391.12L455.88 390.28L455.52 389.44L455.15 388.61L454.76 387.79L454.36 386.98L453.94 386.18L453.5 385.38L453.05 384.6L452.58 383.82L452.09 383.05L451.59 382.29L451.07 381.54L450.54 380.8L449.99 380.06L449.43 379.34L448.85 378.63L448.25 377.93L447.64 377.23L447.02 376.55L446.38 375.88L445.72 375.22L445.05 374.57L444.37 373.94L443.67 373.31L442.96 372.7L442.24 372.11L441.51 371.53L440.78 370.97L440.03 370.43L439.27 369.9L438.51 369.38L437.73 368.89L436.95 368.4L436.16 367.94L435.36 367.49L434.55 367.05L433.74 366.64L432.91 366.24L432.08 365.85L431.24 365.49L430.4 365.13L429.55 364.8L428.69 364.48L427.82 364.18L426.95 363.9L426.08 363.63L425.19 363.38L424.3 363.15L423.41 362.93L422.51 362.74L421.61 362.55L420.7 362.39L419.79 362.25L418.87 362.12L417.95 362.01L417.02 361.91L416.09 361.84L415.16 361.78L414.23 361.74L413.29 361.72L412.34 361.72L411.4 361.74L410.45 361.77Z" id="dCwbXoGJF"></path><path d="M634.58 321.68C634.58 494.81 493.76 635.37 320.3 635.37C146.84 635.37 6.01 494.81 6.01 321.68C6.01 148.55 146.84 7.99 320.3 7.99C493.76 7.99 634.58 148.55 634.58 321.68Z" id="aZJg0f99r"></path><clipPath id="clipei6tA3alQ"><use xlink:href="#aZJg0f99r" opacity="1"></use></clipPath></defs><g><g><g><use xlink:href="#a1mG60R5r3" opacity="1" fill="#94a5b8" fill-opacity="1"></use><g><use xlink:href="#a1mG60R5r3" opacity="1" fill-opacity="0" stroke="#000000" stroke-width="1" stroke-opacity="0"></use></g></g><g><use xlink:href="#dCwbXoGJF" opacity="1" fill="#94a5b8" fill-opacity="1"></use><g><use xlink:href="#dCwbXoGJF" opacity="1" fill-opacity="0" stroke="#000000" stroke-width="1" stroke-opacity="0"></use></g></g><g><use xlink:href="#aZJg0f99r" opacity="1" fill="#f8f8f9" fill-opacity="0"></use><g clip-path="url(#clipei6tA3alQ)"><use xlink:href="#aZJg0f99r" opacity="1" fill-opacity="0" stroke="#94a5b8" stroke-width="100" stroke-opacity="1"></use></g></g></g></g></svg>